<?xml version="1.0" encoding="utf-8"?>
<!-- Generator: Adobe Illustrator 19.2.1, SVG Export Plug-In . SVG Version: 6.00 Build 0)  -->
<!DOCTYPE svg PUBLIC "-//W3C//DTD SVG 1.1//EN" "http://www.w3.org/Graphics/SVG/1.1/DTD/svg11.dtd">
<svg version="1.1" id="Layer_1" xmlns="http://www.w3.org/2000/svg" xmlns:xlink="http://www.w3.org/1999/xlink" x="0px" y="0px"
	 viewBox="0 0 21 21" enable-background="new 0 0 21 21" xml:space="preserve">
<g>
	<linearGradient id="SVGID_1_" gradientUnits="userSpaceOnUse" x1="10.019" y1="10.4503" x2="10.9479" y2="10.4503">
		<stop  offset="0" style="stop-color:#49546E"/>
		<stop  offset="1" style="stop-color:#BA6946"/>
	</linearGradient>
	<path fill="url(#SVGID_1_)" d="M10.5,10.9c0.2,0,0.5-0.2,0.5-0.5c0-0.3-0.2-0.5-0.5-0.5c-0.3,0-0.5,0.2-0.5,0.5
		C10,10.7,10.3,10.9,10.5,10.9z"/>
	<linearGradient id="SVGID_2_" gradientUnits="userSpaceOnUse" x1="10.5497" y1="13.5254" x2="11.9824" y2="13.5254">
		<stop  offset="0" style="stop-color:#49546E"/>
		<stop  offset="1" style="stop-color:#BA6946"/>
	</linearGradient>
	<path fill="url(#SVGID_2_)" d="M11.8,15.2L12,15c-0.8-0.6-1.1-1.5-1.1-2c0-0.3,0.1-0.5,0.3-0.7c0.2-0.2,0.1-0.3,0-0.4l0,0
		c0,0,0,0,0,0c-0.1,0-0.2,0.1-0.3,0.2c-0.1,0.1-0.1,0.2-0.1,0.2c-0.1,0.2-0.2,0.4-0.2,0.7C10.5,13.7,11,14.6,11.8,15.2z"/>
	<linearGradient id="SVGID_3_" gradientUnits="userSpaceOnUse" x1="7.2663" y1="17.8072" x2="14.6009" y2="17.8072">
		<stop  offset="0" style="stop-color:#49546E"/>
		<stop  offset="1" style="stop-color:#BA6946"/>
	</linearGradient>
	<path fill="url(#SVGID_3_)" d="M14.5,15c-0.1-0.1-0.2-0.2-0.4-0.3c-0.2-0.1-0.4-0.1-0.7,0c-0.9,0.4-0.9,1.3-0.9,2.4
		c0,1.2,0,2.8-1.7,3.4c-0.3,0.1-0.6,0.2-0.8,0.2c-0.8,0-1.8-0.4-2.4-1.5c-0.1-0.1-0.1-0.2-0.2-0.4c0,0,0,0-0.1,0
		c-0.1,0-0.1,0.2-0.2,0.3c0,0.1,0,0.2,0.1,0.3C8,20.6,9.2,21,10,21c0.3,0,0.6-0.1,1-0.2c2-0.7,2-2.5,2-3.7c0-1.1,0-1.8,0.7-2.1
		c0.1-0.1,0.3,0,0.4,0c0.1,0.1,0.2,0.1,0.2,0.2c0.1,0.1,0,0.4-0.3,0.6c-0.2,0.1-0.4,0.1-0.6,0.1l-0.1,0.3c0.3,0.1,0.6,0,0.8-0.1
		C14.6,15.8,14.7,15.4,14.5,15z"/>
	<linearGradient id="SVGID_4_" gradientUnits="userSpaceOnUse" x1="7.9871" y1="13.3571" x2="10.019" y2="13.3571">
		<stop  offset="0" style="stop-color:#49546E"/>
		<stop  offset="1" style="stop-color:#BA6946"/>
	</linearGradient>
	<path fill="url(#SVGID_4_)" d="M10,11.9L10,11.9C10,11.9,10,11.9,10,11.9c-0.1,0-0.2,0-0.3,0c0,0,0,0,0,0c-0.3,0-0.6,0.1-0.9,0.4
		l0,0c-0.5,0.5-0.8,1.5-0.7,2.5l0.3,0c-0.1-1,0.3-1.9,0.6-2.3l0,0c0.2-0.2,0.5-0.3,0.7-0.3C9.9,12.2,10,12.1,10,11.9z"/>
	<linearGradient id="SVGID_5_" gradientUnits="userSpaceOnUse" x1="1.8467" y1="16.3764" x2="10.1739" y2="16.3764">
		<stop  offset="0" style="stop-color:#49546E"/>
		<stop  offset="1" style="stop-color:#BA6946"/>
	</linearGradient>
	<path fill="url(#SVGID_5_)" d="M9.5,15.9c0.1,0.1,0.3,0.2,0.3,0.3c0,0.1,0,0.2,0,0.3c0,0.1-0.1,0.2-0.2,0.2c-0.1,0-0.2,0-0.4,0
		c-0.2-0.1-0.3-0.2-0.5-0.4l-0.3,0.2c0.2,0.3,0.4,0.4,0.6,0.5c0.3,0.1,0.5,0.1,0.6,0c0.2-0.1,0.3-0.2,0.4-0.4c0-0.2,0-0.4,0-0.5
		c-0.1-0.2-0.3-0.4-0.5-0.5c-0.9-0.3-1.5,0.3-2.3,1.1c-0.9,0.9-2,2-3.7,1.2c-0.3-0.1-0.5-0.3-0.7-0.5c-0.7-0.7-0.9-1.7-0.6-2.7
		c0-0.1,0.1-0.2,0.1-0.3c0,0,0,0,0,0c0,0,0,0,0,0c0,0,0,0,0,0c0,0,0,0,0,0l0,0c-0.1,0-0.2,0-0.2,0c-0.1,0-0.2,0.1-0.2,0.2
		c-0.3,1.1-0.1,2.3,0.7,3.1c0.2,0.2,0.5,0.4,0.8,0.6c0.5,0.2,0.9,0.3,1.3,0.3c1.2,0,2.1-0.9,2.8-1.5C8.3,16.1,8.8,15.7,9.5,15.9z"/>
	<linearGradient id="SVGID_6_" gradientUnits="userSpaceOnUse" x1="5.7111" y1="11.2661" x2="9.0521" y2="11.2661">
		<stop  offset="0" style="stop-color:#49546E"/>
		<stop  offset="1" style="stop-color:#BA6946"/>
	</linearGradient>
	<path fill="url(#SVGID_6_)" d="M5.7,11.8L6,12c0.6-0.7,1.5-1.1,2-1.1c0.3,0,0.5,0.1,0.7,0.3c0.1,0.1,0.1,0.1,0.2,0.1
		c0.1,0,0.1,0,0.1,0c0,0,0,0,0,0c0,0,0-0.1,0-0.1C9,11,9,11,8.9,10.9c0,0,0,0,0,0c-0.3-0.2-0.5-0.4-1-0.4
		C7.4,10.5,6.4,10.9,5.7,11.8z"/>
	<linearGradient id="SVGID_7_" gradientUnits="userSpaceOnUse" x1="0" y1="10.9662" x2="6.3524" y2="10.9662">
		<stop  offset="0" style="stop-color:#49546E"/>
		<stop  offset="1" style="stop-color:#BA6946"/>
	</linearGradient>
	<path fill="url(#SVGID_7_)" d="M3.9,13C5,13,5.7,13,6,13.7C6,13.8,6,13.9,6,14.1c-0.1,0.1-0.1,0.2-0.2,0.2c-0.1,0.1-0.4,0-0.6-0.3
		c-0.1-0.2-0.1-0.4-0.1-0.6l-0.3-0.1c-0.1,0.3,0,0.6,0.1,0.8c0.2,0.3,0.5,0.5,0.7,0.5c0.1,0,0.2,0,0.3-0.1c0.1-0.1,0.2-0.2,0.3-0.4
		c0.1-0.2,0.1-0.4,0-0.7c-0.4-0.9-1.3-0.9-2.4-0.9l-0.1,0c-1.3,0-2.7-0.1-3.3-1.8c-0.1-0.3-0.2-0.6-0.2-0.8c0-0.8,0.4-1.8,1.5-2.4
		l0,0C1.9,7.6,2,7.6,2,7.6c0.1,0,0.1,0,0.2-0.1c0.1,0,0.1-0.1,0-0.1C2.2,7.3,2,7.3,2,7.3c-0.1,0-0.2,0-0.3,0.1l0,0c0,0,0,0,0,0
		c0,0,0,0,0,0C0.4,8,0,9.2,0,10c0,0.3,0.1,0.6,0.2,1C0.9,12.9,2.5,12.9,3.9,13L3.9,13z"/>
	<linearGradient id="SVGID_8_" gradientUnits="userSpaceOnUse" x1="6.16" y1="8.9997" x2="9.058" y2="8.9997">
		<stop  offset="0" style="stop-color:#49546E"/>
		<stop  offset="1" style="stop-color:#BA6946"/>
	</linearGradient>
	<path fill="url(#SVGID_8_)" d="M9.1,9.7c0-0.3,0-0.6-0.4-1C8.2,8.2,7.2,7.9,6.2,8l0,0.3c1-0.1,1.9,0.3,2.3,0.6
		c0.2,0.2,0.3,0.5,0.3,0.7C8.7,9.9,8.8,10,9,10c0,0,0,0,0.1,0c0,0,0,0,0,0c0,0,0-0.1,0-0.1C9.1,9.8,9.1,9.8,9.1,9.7
		C9.1,9.7,9.1,9.7,9.1,9.7z"/>
	<linearGradient id="SVGID_9_" gradientUnits="userSpaceOnUse" x1="2.5001" y1="5.9771" x2="6.6808" y2="5.9771">
		<stop  offset="0" style="stop-color:#49546E"/>
		<stop  offset="1" style="stop-color:#BA6946"/>
	</linearGradient>
	<path fill="url(#SVGID_9_)" d="M5,9.5C5,9.6,4.9,9.7,4.7,9.8c-0.1,0-0.2,0-0.3,0c-0.1,0-0.2-0.1-0.2-0.2c0-0.1,0-0.2,0-0.4
		C4.3,9,4.5,8.9,4.7,8.7L4.5,8.5C4.2,8.6,4,8.9,4,9.1c-0.1,0.3-0.1,0.5,0,0.6C4,9.9,4.2,10,4.4,10.1c0.1,0,0.1,0,0.2,0
		c0.1,0,0.2,0,0.3-0.1C5.1,10,5.2,9.8,5.3,9.6C5.7,8.7,5.1,8,4.3,7.2c-0.9-0.9-2-2-1.2-3.7c0.1-0.3,0.3-0.5,0.5-0.7
		C4.3,2.2,5.3,2,6.4,2.3c0,0,0,0,0,0c0.1,0,0.2,0.1,0.3,0.1c0,0,0,0,0,0l0,0c0-0.1,0-0.2,0-0.2C6.6,2.1,6.5,2,6.5,2
		C5.3,1.6,4.2,1.9,3.4,2.7C3.1,2.9,2.9,3.2,2.8,3.4C1.9,5.4,3.2,6.6,4,7.5C4.9,8.3,5.3,8.8,5,9.5z"/>
	<linearGradient id="SVGID_10_" gradientUnits="userSpaceOnUse" x1="8.9844" y1="7.3772" x2="10.4171" y2="7.3772">
		<stop  offset="0" style="stop-color:#49546E"/>
		<stop  offset="1" style="stop-color:#BA6946"/>
	</linearGradient>
	<path fill="url(#SVGID_10_)" d="M10.4,8c0-0.6-0.4-1.6-1.2-2.3L9,6c0.7,0.6,1.1,1.5,1.1,2c0,0.3-0.1,0.5-0.3,0.7
		C9.7,8.8,9.7,9,9.7,9c0,0,0,0,0.1,0c0,0,0,0,0.1,0c0,0,0,0,0.1,0C9.9,9,10,9,10,8.9C10.3,8.6,10.4,8.4,10.4,8z"/>
	<linearGradient id="SVGID_11_" gradientUnits="userSpaceOnUse" x1="6.3329" y1="3.1762" x2="13.6797" y2="3.1762">
		<stop  offset="0" style="stop-color:#49546E"/>
		<stop  offset="1" style="stop-color:#BA6946"/>
	</linearGradient>
	<path fill="url(#SVGID_11_)" d="M6.4,6c0.1,0.1,0.2,0.2,0.4,0.3c0.1,0,0.2,0.1,0.3,0.1c0.1,0,0.2,0,0.3-0.1
		c0.9-0.4,0.9-1.3,0.9-2.4l0-0.1c0-1.3,0.1-2.7,1.8-3.3c0.3-0.1,0.6-0.2,0.8-0.2c1,0,1.9,0.6,2.4,1.5c0,0,0,0,0,0
		c0,0.1,0.1,0.2,0.1,0.3c0,0,0,0,0,0c0,0,0,0,0,0c0,0,0,0,0,0l0,0c0,0,0,0,0,0c0,0,0,0,0,0c0.1-0.1,0.2-0.3,0.1-0.4
		C13,0.6,12,0,10.9,0c-0.3,0-0.6,0.1-1,0.2C8.1,0.9,8,2.6,8,3.8l0,0.1C8,5,8,5.7,7.3,6C7.2,6,7,6,6.9,6C6.8,5.9,6.7,5.8,6.7,5.8
		C6.6,5.7,6.7,5.4,7,5.2c0.2-0.1,0.4-0.1,0.6-0.1l0.1-0.3c-0.3-0.1-0.6,0-0.8,0.1C6.4,5.2,6.2,5.6,6.4,6z"/>
	<linearGradient id="SVGID_12_" gradientUnits="userSpaceOnUse" x1="10.9244" y1="7.6055" x2="12.9558" y2="7.6055">
		<stop  offset="0" style="stop-color:#49546E"/>
		<stop  offset="1" style="stop-color:#BA6946"/>
	</linearGradient>
	<path fill="url(#SVGID_12_)" d="M10.9,9L10.9,9C10.9,9,10.9,9,10.9,9c0.1,0,0.2,0,0.3,0c0.1,0,0.1,0,0.2,0c0.3,0,0.6-0.1,0.9-0.4
		l0,0c0.5-0.5,0.8-1.5,0.7-2.5l-0.3,0c0.1,1-0.3,1.9-0.6,2.3l0,0c-0.2,0.2-0.5,0.3-0.7,0.3C11.1,8.7,10.9,8.9,10.9,9z"/>
	<linearGradient id="SVGID_13_" gradientUnits="userSpaceOnUse" x1="10.7266" y1="4.5969" x2="19.1535" y2="4.5969">
		<stop  offset="0" style="stop-color:#49546E"/>
		<stop  offset="1" style="stop-color:#BA6946"/>
	</linearGradient>
	<path fill="url(#SVGID_13_)" d="M13.4,4.1c-0.8,0.8-1.3,1.2-2,1c-0.1-0.1-0.3-0.2-0.3-0.3c0-0.1,0-0.2,0-0.3c0-0.1,0.1-0.2,0.2-0.2
		c0.1,0,0.2,0,0.4,0c0.2,0.1,0.3,0.2,0.5,0.4l0.3-0.2C12.2,4.3,12,4.1,11.8,4c-0.3-0.1-0.5-0.1-0.6,0c-0.2,0.1-0.3,0.2-0.4,0.4
		c0,0.2,0,0.4,0,0.5c0.1,0.2,0.3,0.4,0.5,0.5c0.9,0.3,1.5-0.3,2.3-1.1l0,0c0.9-0.9,2-1.9,3.7-1.2c0.3,0.1,0.5,0.3,0.7,0.5
		c0.7,0.7,0.9,1.7,0.6,2.7c0,0.1-0.1,0.2-0.1,0.3c0,0,0,0,0,0l0,0c0,0,0.1,0,0.1,0c0,0,0.1,0,0.1,0c0.1,0,0.2-0.1,0.2-0.2
		c0.3-1.1,0.1-2.3-0.7-3.1c-0.2-0.2-0.5-0.4-0.8-0.6C15.5,2,14.4,3.1,13.4,4.1L13.4,4.1z"/>
	<linearGradient id="SVGID_14_" gradientUnits="userSpaceOnUse" x1="11.9108" y1="9.7007" x2="15.2558" y2="9.7007">
		<stop  offset="0" style="stop-color:#49546E"/>
		<stop  offset="1" style="stop-color:#BA6946"/>
	</linearGradient>
	<path fill="url(#SVGID_14_)" d="M15.3,9.2L15,9c-0.6,0.8-1.5,1.1-2,1.1c-0.3,0-0.5-0.1-0.7-0.3c-0.1-0.1-0.3-0.1-0.3-0.1
		C11.9,9.8,12,10,12,10c0,0,0,0,0,0c0.3,0.2,0.5,0.4,1,0.4C13.8,10.4,14.6,9.9,15.3,9.2z"/>
	<linearGradient id="SVGID_15_" gradientUnits="userSpaceOnUse" x1="14.6146" y1="10.0237" x2="20.9669" y2="10.0237">
		<stop  offset="0" style="stop-color:#49546E"/>
		<stop  offset="1" style="stop-color:#BA6946"/>
	</linearGradient>
	<path fill="url(#SVGID_15_)" d="M20.8,10c-0.7-1.9-2.4-2-3.6-2l-0.1,0C16,8,15.3,8,15,7.3c-0.1-0.1-0.1-0.3,0-0.4
		c0.1-0.1,0.1-0.2,0.2-0.2c0.1-0.1,0.4,0,0.6,0.3c0.1,0.2,0.1,0.4,0.1,0.6l0.3,0.1c0.1-0.3,0-0.6-0.1-0.8c-0.2-0.5-0.7-0.6-1-0.4
		c-0.1,0.1-0.2,0.2-0.3,0.4c-0.1,0.2-0.1,0.4,0,0.7c0.4,0.9,1.3,0.9,2.4,0.9l0.1,0c1.3,0,2.7,0.1,3.3,1.8c0.1,0.3,0.2,0.6,0.2,0.8
		c0,0.8-0.4,1.8-1.5,2.4c0,0,0,0,0,0c-0.1,0-0.2,0.1-0.3,0.1c0,0,0,0,0,0l0,0c0,0,0,0,0,0c0,0,0,0,0,0c0.1,0.1,0.2,0.1,0.3,0.1
		c0,0,0.1,0,0.1,0C20.5,13,21,11.9,21,11C21,10.7,20.9,10.4,20.8,10z"/>
	<linearGradient id="SVGID_16_" gradientUnits="userSpaceOnUse" x1="11.9264" y1="11.9451" x2="14.8117" y2="11.9451">
		<stop  offset="0" style="stop-color:#49546E"/>
		<stop  offset="1" style="stop-color:#BA6946"/>
	</linearGradient>
	<path fill="url(#SVGID_16_)" d="M12.3,12.2c0.5,0.5,1.3,0.7,2.1,0.7c0.1,0,0.3,0,0.4,0l0-0.3c-1.1,0.1-1.9-0.3-2.3-0.6l0,0
		c-0.2-0.2-0.3-0.5-0.3-0.7c0-0.2-0.1-0.3-0.3-0.3v0c0,0,0,0,0,0c0,0.1,0,0.2,0,0.3c0,0,0,0,0,0C11.9,11.5,12,11.9,12.3,12.2
		L12.3,12.2z"/>
	<linearGradient id="SVGID_17_" gradientUnits="userSpaceOnUse" x1="14.2539" y1="14.9897" x2="18.4337" y2="14.9897">
		<stop  offset="0" style="stop-color:#49546E"/>
		<stop  offset="1" style="stop-color:#BA6946"/>
	</linearGradient>
	<path fill="url(#SVGID_17_)" d="M15.9,11.5c0.1-0.1,0.2-0.3,0.3-0.3c0.1,0,0.2,0,0.3,0c0.1,0,0.2,0.1,0.2,0.2c0,0.1,0,0.2,0,0.4
		c-0.1,0.2-0.2,0.3-0.4,0.5l0.2,0.3c0.3-0.2,0.4-0.4,0.5-0.6c0.1-0.3,0.1-0.5,0-0.6c-0.1-0.2-0.2-0.3-0.4-0.4c-0.2,0-0.4,0-0.5,0
		c-0.2,0.1-0.4,0.3-0.5,0.5c-0.3,0.9,0.3,1.5,1.1,2.3c0.9,0.9,2,2,1.2,3.7c-0.1,0.3-0.3,0.5-0.5,0.7c-0.7,0.7-1.7,0.9-2.7,0.6
		c-0.1,0-0.1,0-0.2-0.1c0,0-0.1,0-0.1-0.1c0,0,0,0,0,0l0,0c0,0,0,0,0,0c0,0,0,0,0,0c0,0.1,0,0.1,0,0.2c0,0.1,0.1,0.2,0.2,0.2
		c0.3,0.1,0.7,0.2,1,0.2c0.8,0,1.5-0.3,2.1-0.9c0.2-0.2,0.4-0.5,0.6-0.8c0.9-1.9-0.4-3.2-1.2-4C16.1,12.7,15.7,12.2,15.9,11.5z"/>
</g>
</svg>
