<?xml version="1.0" encoding="utf-8"?>
<!-- Generator: Adobe Illustrator 21.0.0, SVG Export Plug-In . SVG Version: 6.00 Build 0)  -->
<svg version="1.1" id="pattern" xmlns="http://www.w3.org/2000/svg" xmlns:xlink="http://www.w3.org/1999/xlink" x="0px" y="0px"
	 width="554.3px" height="559.5px" viewBox="0 0 554.3 559.5" style="enable-background:new 0 0 554.3 559.5;" xml:space="preserve"
	>
<style type="text/css">
	.st0{fill:none;stroke:#E1E0E4;stroke-width:1.1;}
	.st1{fill:none;stroke:#E1E0E4;stroke-width:0.9;}
	.st2{fill:none;stroke:#E1E0E4;stroke-width:0.8;}
	.st3{fill:none;stroke:#E1E0E4;stroke-width:1.016;}
	.st4{fill:none;stroke:#E1E0E4;stroke-width:0.762;}
	.st5{fill:none;stroke:#E1E0E4;stroke-width:0.508;}
	.st6{fill:none;stroke:#E1E0E4;stroke-width:0.254;}
	.st8{fill:none;stroke:#E1E0E4;stroke-width:0.203;}
	.st9{fill:none;stroke:#E1E0E4;stroke-width:0.127;}
</style>
<g>
	<path class="st0" d="M277.5,253.3c4.1,0,7.1,2.2,10.5,3.9c2.9,1.5,6.8,2.2,9,4.6c2.4,2.7,3.2,6.3,4.4,9.8c1,2.9,2.9,5.4,2.9,8.5
		c0,3.9-2.2,7.1-3.9,10.5c-1.7,3.7-2.9,7.6-6.1,10.3c-2.2,2-5.6,2.2-8.3,3.2c-2.9,1.2-5.4,2.9-8.5,2.9c-4.1,0-7.1-2.2-10.5-3.9
		c-3.2-1.7-7.6-2.7-9.8-5.6c-2.4-2.7-2.4-6.3-3.7-9.8c-0.7-2.4-2.9-4.9-2.9-7.6c0-4.4,2.9-8.8,4.9-12.4c1.5-2.7,1.5-5.1,3.7-7.1
		c2.7-2.4,6.1-3.2,9.8-4.4C271.7,255.2,274.6,253.3,277.5,253.3z"/>
	<path class="st1" d="M277.5,244.7c5.6,0,9.3,2.7,13.9,5.1c3.9,2,8.8,2.9,11.7,6.1c3.4,3.4,4.1,8.5,5.9,12.9
		c1.5,3.9,3.9,7.1,3.9,11.5c0,5.4-2.9,9.5-5.1,13.9c-2.2,4.9-3.7,10-7.8,13.4c-2.9,2.4-7.3,2.9-11.2,4.1c-3.9,1.5-7.1,3.9-11.5,3.9
		c-5.6,0-9.3-2.7-13.9-5.1c-4.4-2.2-9.8-3.7-12.9-7.3c-3.2-3.7-3.4-8.3-4.9-12.9c-1-3.2-3.9-6.6-3.9-10.3c0-5.9,3.9-11.7,6.3-16.6
		c2-3.7,2-6.8,4.9-9.5c3.7-3.4,8.1-4.1,12.9-5.9C269.7,247.2,273.6,244.7,277.5,244.7z"/>
	<path class="st2" d="M288.5,239.8c6.3,1.7,9.8,6.1,14.4,10c3.9,3.4,9.3,6.1,11.7,10.5c2.7,4.9,2.2,11,2.7,16.6
		c0.5,4.9,2.2,9.3,0.7,14.2c-1.7,6.1-6.3,9.8-10,14.4c-4.1,4.9-7.3,10.3-13.2,12.9c-4.1,2-9.3,1-13.9,1.5c-4.9,0.5-9,2.2-14.2,0.7
		c-6.3-1.7-9.8-5.9-14.4-10c-4.4-3.7-10-7.1-12.4-12.2c-2.4-5.1-1.2-10.5-1.5-16.4c-0.2-3.9-2.4-8.5-1.2-12.7
		c1.7-6.8,7.8-12,12.2-16.8c3.2-3.4,4.4-7.1,8.5-9.3c5.1-2.7,10.5-2.2,16.4-2.7C278.7,240.3,283.9,238.6,288.5,239.8z"/>
	<path class="st2" d="M289.2,232c7.6,2,11.5,6.8,17.1,11.5c4.6,3.9,11,6.8,13.9,12.2c3.2,5.9,2.9,12.7,3.7,19.5
		c0.5,5.6,2.7,11,1.2,16.6c-1.7,7.1-7.3,11.7-11.5,17.1c-4.6,5.9-8.5,12.4-15.1,15.6c-4.9,2.2-11,1.5-16.4,2
		c-5.6,0.7-10.7,2.7-16.6,1.2c-7.6-2-11.5-6.8-17.1-11.5c-5.1-4.4-12-8.3-14.9-14.2c-3.2-6.1-1.7-12.2-2-19.3
		c-0.2-4.6-2.9-10.3-1.7-14.9c2-8.1,9-14.4,14.2-20c3.7-4.1,4.9-8.3,9.8-11c6.1-3.4,12.2-2.9,19.3-3.4
		C277.8,232.8,283.9,230.6,289.2,232z"/>
	<path class="st3" d="M243.3,234c7.3-5.4,14.9-5.4,23.2-6.8c6.8-1.2,14.4-4.9,21.2-3.7c7.8,1.5,13.9,6.8,20.5,11.2
		c5.6,3.7,12,5.6,16.1,11.2c5.1,6.8,5.4,15.4,6.8,23.2c2,8.8,4.9,16.8,2.7,25.4c-1.5,6.1-6.8,11-10.5,16.4
		c-3.7,5.6-5.6,11.7-11.2,16.1c-7.3,5.4-14.9,5.4-23.2,6.8c-7.8,1.5-16.4,4.9-24.2,3.2c-7.8-1.7-12.4-7.6-19-12.4
		c-4.4-3.4-11.5-4.9-14.9-9.5c-5.9-7.8-6.3-18.8-7.8-27.8c-1-6.6-3.9-10.7-2.7-17.3c1.5-8.1,6.6-13.2,11.2-20
		C235.8,245,238.2,237.9,243.3,234z"/>
	<path class="st4" d="M277.5,211.8c10.7,0,17.8,5.4,26.8,9.8c7.3,3.7,17.1,5.6,22.7,11.5c6.3,6.6,8.3,16.4,11.5,25.1
		c2.7,7.3,7.3,13.7,7.3,22c0,10.3-5.9,18.3-9.8,26.8c-4.4,9.5-7.3,19.5-15.4,26.1c-5.9,4.6-14.4,5.6-21.5,8.3
		c-7.6,2.9-13.4,7.3-22,7.3c-10.7,0-17.8-5.4-26.8-9.8c-8.3-4.1-19-7.1-24.9-13.9c-6.1-7.1-6.3-15.9-9.3-25.1
		c-2-6.3-7.3-12.7-7.3-19.5c0-11.5,7.3-22.5,12.2-31.7c3.7-6.8,3.9-12.9,9.5-18.3c7.1-6.6,15.4-7.8,24.7-11
		C262.6,216.7,269.9,211.8,277.5,211.8z"/>
	<path class="st4" d="M269,204c12-1.2,20.7,3.9,31.2,7.6c8.8,3.2,20,4.1,26.8,10.3c8.1,6.8,11.2,17.1,15.9,26.6
		c3.9,7.8,9.8,14.4,11,23.7c1.2,11.2-4.4,21-7.8,31.2c-3.7,11.2-5.9,22.5-13.9,30.8c-5.9,5.9-15.4,7.8-22.9,11.7
		c-8.1,4.1-14.2,9.8-23.7,10.7c-12.2,1.2-20.5-3.9-31.2-7.6c-9.8-3.7-22-5.6-29.8-12.7c-7.8-7.3-9.3-16.8-13.4-26.8
		c-2.9-6.8-9.8-13.2-10.5-21c-1.5-12.7,5.4-25.9,9.8-36.9c3.2-8.3,2.7-14.9,8.5-21.5c7.1-8.1,16.4-10.7,26.4-15.4
		C252.6,211.3,260.2,204.7,269,204z"/>
	<path class="st5" d="M268.5,194.7c13.4-1.5,22.9,4.4,34.9,8.5c9.8,3.4,22.2,4.6,30,11.5c8.8,7.6,12.4,19.3,17.6,29.8
		c4.4,8.8,11,16.1,12.2,26.6c1.5,12.7-4.9,23.7-8.5,34.9c-4.1,12.4-6.3,25.4-15.6,34.7c-6.6,6.6-17.1,8.8-25.6,13.2
		c-9,4.6-15.9,11-26.6,12.2c-13.4,1.5-22.9-4.1-34.9-8.5c-11-3.9-24.7-6.1-33.2-14.2s-10.3-19-14.9-30c-3.2-7.6-11-14.9-11.7-23.4
		c-1.5-14.2,6.1-28.8,11-41.2c3.7-9.3,3.2-16.6,9.5-24.2c7.8-9,18.3-12,29.3-17.1C250.2,203,258.7,195.9,268.5,194.7z"/>
	<path class="st5" d="M277.3,184.7c14.9,0,24.9,7.6,37.3,13.7c10.3,5.1,23.9,7.8,31.7,16.1c8.8,9.3,11.5,22.7,15.9,34.9
		c3.7,10.3,10.3,19,10.3,30.5c0,14.2-8.1,25.4-13.7,37.3c-6.1,13.2-10,27.1-21.2,36.1c-8.1,6.6-20,7.8-29.8,11.5
		c-10.5,3.9-18.8,10.3-30.5,10.3c-14.9,0-24.7-7.3-37.3-13.7c-11.7-5.6-26.4-9.8-34.7-19.5c-8.5-10-9-22-12.9-34.9
		c-2.7-8.8-10.3-17.6-10.3-27.1c0-15.9,10.3-31,17.1-44.2c5.1-9.8,5.4-18.1,13.2-25.4c9.8-9,21.5-11,34.4-15.4
		C256.3,191.8,266.5,184.7,277.3,184.7z"/>
	<path class="st5" d="M277.3,172c16.8,0,28.1,8.5,42.5,15.4c11.7,5.6,27.1,8.8,35.9,18.3c10,10.5,12.9,25.6,18.1,39.5
		c4.1,11.5,11.5,21.7,11.5,34.7c0,16.1-9.3,28.8-15.4,42.5c-6.8,15.1-11.5,30.8-24.2,41c-9,7.3-22.7,8.8-33.7,12.9
		c-11.7,4.4-21.2,11.5-34.7,11.5c-17.1,0-28.1-8.3-42.5-15.4c-13.2-6.3-29.8-11-39.3-22c-9.8-11.2-10.3-24.9-14.6-39.5
		c-2.9-10-11.5-20-11.5-30.8c0-18.1,11.5-35.1,19.3-50c5.6-11,6.1-20.5,14.9-28.8c11-10.3,24.4-12.4,39.1-17.6
		C253.6,179.8,265.1,172,277.3,172z"/>
	<path class="st5" d="M277,156.4c19.3,0,32.2,4.6,48.6,12.4c13.4,6.6,30.3,12.4,40.3,22.9c11.5,12.2,19,26.4,24.9,42.2
		c4.9,13.2,9.5,30.8,9.5,45.6c0,18.3-3.4,33-10.5,48.6c-7.8,17.1-20.3,35.1-34.7,46.9c-10.3,8.5-22.7,13.7-35.6,18.3
		c-13.4,5.1-27.6,9.5-42.7,9.5c-19.5,0-32.2-9.5-48.6-17.6c-15.1-7.3-34.2-12.7-45.2-25.1c-11.2-12.9-14.4-24.9-19.3-41.7
		c-3.4-11.2-10.5-26.4-10.5-38.8c0-20.5,5.6-40,14.4-57.1c6.6-12.4,14.6-23.4,24.9-33.2c12.4-11.7,26.8-18.8,43.4-24.7
		C249,160.5,263.1,156.4,277,156.4z"/>
	<path class="st6" d="M277,131.2c23.2,0,38.8,11.7,58.3,21.2c16.1,7.8,37.1,12.2,49.5,25.1c13.9,14.6,17.8,35.1,24.9,54.4
		c5.9,15.9,15.9,29.8,15.9,47.8c0,22-9.3,41-17.8,59.8c-9.5,20.7-19.5,38.6-36.9,52.7c-12.4,10.3-21.5,16.1-36.9,22
		c-16.4,6.1-38.6,13.9-56.9,13.9c-23.4,0-39.1-12.2-58.8-22c-18.1-8.8-37.8-15.9-50.8-31c-13.4-15.6-18.8-30.8-24.9-50.8
		c-4.1-13.7-13.9-29.8-13.9-44.9c0-24.7,13.2-50.3,23.9-70.8c7.8-15.1,11-26.4,23.2-37.8c15.1-14.2,33.7-17.1,53.7-23.9
		C244.6,142,260.2,131.2,277,131.2z"/>
	<path class="st6" d="M277.5,108.8c26.8,0,44.7,13.4,67.4,24.4c18.5,9,43,14.2,57.1,29c15.9,16.8,20.5,40.8,28.6,62.7
		c6.8,18.3,18.3,34.4,18.3,55.2c0,25.4-10.5,48.6-20.5,70.1c-11,23.9-22.2,45.9-42.2,62.2c-14.4,11.7-35.9,13.9-53.7,20.5
		c-18.8,7.1-33.9,18.3-55.2,18.3c-27.1,0-44.7-13.4-67.4-24.4c-21-10.3-47.4-17.6-62.5-35.1c-15.4-17.8-16.1-39.8-23.2-63
		c-4.6-15.6-18.3-31.7-18.3-49.1c0-28.6,18.3-55.9,30.5-79.6c9-17.3,9.8-32.5,23.9-45.6c17.3-16.4,38.8-19.8,61.8-27.8
		C239.9,121.2,258.2,108.8,277.5,108.8z"/>
	<path class="st8" d="M277.5,83.1c31,0,51.3,15.4,77.4,28.1c21.5,10.5,49.3,16.1,65.7,33.2c18.3,19.3,23.7,46.9,33,72.2
		c7.8,21.2,21,39.5,21,63.2c0,29.3-16.8,52.5-28.1,77.4c-12.4,27.3-20.7,55.9-43.9,74.9c-16.6,13.7-41.2,15.9-61.8,23.7
		c-21.5,8.1-39.1,21-63.2,21c-31,0-51.3-15.4-77.4-28.1c-24.2-11.7-54.4-20.3-71.8-40.3c-17.8-20.5-18.5-45.6-26.6-72.2
		c-5.4-18.1-21-36.4-21-56.4c0-32.7,21-64.2,35.1-91.5c10.5-20,11-37.3,27.3-52.5c20-18.3,44.4-22.5,71-31.5
		C234.3,97.5,255.3,83.1,277.5,83.1z"/>
	<path class="st8" d="M277.5,48.7c36.4,0,60.3,18.3,91,33.2c25.1,12.2,58.1,19,77.1,39.1c21.5,22.7,27.8,54.9,38.8,84.9
		c9,24.9,24.9,46.4,24.9,74.4c0,34.4-19.8,61.8-33.2,91c-14.6,32.2-24.4,65.9-51.5,88.1c-19.5,15.9-48.6,18.8-72.5,27.8
		c-25.4,9.5-45.9,24.9-74.4,24.9c-36.6,0-60.3-18.1-91-33.2c-28.3-13.9-64.2-23.7-84.5-47.4c-20.7-24.2-22-53.7-31.2-84.9
		c-6.3-21.2-24.9-42.7-24.9-66.1c0-38.6,24.7-75.7,41.2-107.6c12.2-23.4,12.9-43.9,32.2-61.8c23.7-22,52.5-26.8,83.5-37.6
		C226.7,65.3,251.4,48.7,277.5,48.7z"/>
	<path class="st9" d="M277,20.7c40.5,0,74.4,10,108.6,26.6c28.1,13.7,58.1,31.7,79.3,54.2c24.2,25.4,41.2,54.4,53.7,87.9
		c10.3,27.8,17.3,59.1,17.3,90.3c0,38.3-37.3,68.6-52.2,101.3c-16.6,36.1-12.2,74.2-42.5,99.1c-21.7,17.8-54.2,21-81,31
		c-28.3,10.7-56.1,16.8-88.4,16.8c-40.8,0-62.2-9.3-96.7-26.1c-31.7-15.6-71.8-26.6-94.5-53c-23.2-26.6-34.7-50.8-45.2-85.7
		c-7.1-23.7-17.3-56.9-17.3-83c0-43.2,20-91.3,38.6-127.2c13.4-26.4,33-33.4,54.4-53.5c26.4-24.7,44.4-48.3,79.3-60.3
		C216.7,30.2,247.7,20.7,277,20.7z"/>
	<path class="st9" d="M277,2.6c43.4,0,72.2,21.7,108.9,39.5c30,14.6,69.6,22.9,92.3,46.9c25.9,27.1,33.2,65.9,46.4,101.5
		c11,29.8,29.8,55.6,29.8,89.1c0,41-23.4,73.7-39.5,108.9c-17.6,38.6-29.3,78.8-61.8,105.4c-23.2,19-58.1,22.5-86.6,33.2
		c-30.3,11.5-54.9,29.8-89.1,29.8c-43.7,0-72.2-21.5-108.9-39.5c-33.9-16.6-76.6-28.3-101-56.6c-24.9-29-26.1-64.2-37.6-101.8
		C22,333.6,0,307.7,0,279.6c0-46.1,29.5-90.6,49.5-128.6c14.6-28.1,15.6-52.5,38.6-74c28.3-26.4,62.7-32,100.1-44.9
		C216.3,22.6,245.8,2.6,277,2.6z"/>
</g>
</svg>
