<?xml version="1.0" encoding="utf-8"?>
<!-- Generator: Adobe Illustrator 19.2.1, SVG Export Plug-In . SVG Version: 6.00 Build 0)  -->
<!DOCTYPE svg PUBLIC "-//W3C//DTD SVG 1.1//EN" "http://www.w3.org/Graphics/SVG/1.1/DTD/svg11.dtd">
<svg version="1.1" id="pattern" xmlns="http://www.w3.org/2000/svg" xmlns:xlink="http://www.w3.org/1999/xlink" x="0px" y="0px"
	 viewBox="0 0 585.5 585.5" style="enable-background:new 0 0 585.5 585.5;" xml:space="preserve">
<style type="text/css">
	.st0{fill:none;stroke:#E1E0E4;stroke-width:1.016;}
	.st1{fill:none;stroke:#E1E0E4;stroke-width:0.508;}
	.st2{fill:none;stroke:#E1E0E4;stroke-width:2.032;}
	.st3{fill:none;stroke:#E1E0E4;stroke-width:1.524;}
</style>
<path class="st0" d="M292.8,14.6C446.1,15.2,572,139.8,572,293.3C572,447.2,447.2,572,293.3,572S14.6,447.2,14.6,293.3
	C14.6,139.5,139.1,14.6,292.8,14.6"/>
<path class="st1" d="M293.8,0.3c161.1,0.6,291.5,131.3,291.5,292.5c0,161.5-131,292.5-292.5,292.5S0.3,454.3,0.3,292.8
	C0.3,131.5,132.6,0.7,293.8,0.3"/>
<path class="st2" d="M293.3,32.9c40.6,0.1,75,10.1,109.2,26.7c28.3,13.8,58.3,31.9,79.7,54.5c24.2,25.5,41.6,54.8,53.9,88.4
	c10.2,28,17.5,59.4,17.5,90.9c0,38.6-37.5,68.9-52.5,101.9c-16.6,36.3-12.2,74.5-42.7,99.6c-21.9,18-54.5,21.1-81.5,31.2
	c-28.5,10.7-56.6,16.9-88.8,16.9c-41.1,0-62.7-9.2-97.2-26.2c-31.8-15.6-72.1-26.7-95-53.3c-23.4-27.2-34.9-51.4-45.6-86.6
	c-7.2-23.9-17.5-57.2-17.5-83.5c0-43.3,20-91.8,38.7-127.8c13.7-26.4,22.4-42.6,44-62.7c26.5-24.8,55.5-39.6,90.6-51.6
	C232.5,42.4,263.9,33.1,293.3,32.9"/>
<path class="st3" d="M294.4,25.2c41.8,0.1,76.8,10.4,112.1,27.6c29.2,14.2,60.1,32.9,82.2,56.2c25,26.3,42.9,56.4,55.6,91.1
	c10.6,28.8,18.1,61.1,18.1,93.6c0,39.8-33.6,76.6-49.1,110.6c-17.1,37.4-17.7,71.2-49.1,97c-22.5,18.5-56.2,21.7-84,32.1
	c-29.4,11-58.3,17.4-91.6,17.4c-42.4,0-64.7-9.5-100.3-26.9c-32.8-16.1-74.4-27.5-98-54.9c-24.2-28-36-52.9-47-89.2
	c-7.5-24.6-18.1-58.9-18.1-86c0-44.6,20.6-94.6,39.9-131.6c14.2-27.2,23.1-43.9,45.4-64.6c27.3-25.5,57.3-40.8,93.4-53.2
	C231,35,264.2,25.4,294.4,25.2"/>
</svg>
