<?xml version="1.0" encoding="utf-8"?>
<!-- Generator: Adobe Illustrator 21.0.0, SVG Export Plug-In . SVG Version: 6.00 Build 0)  -->
<svg version="1.1" id="Layer_1" xmlns="http://www.w3.org/2000/svg" xmlns:xlink="http://www.w3.org/1999/xlink" x="0px" y="0px"
	 width="227.3px" height="227.3px" viewBox="0 0 227.3 227.3" style="enable-background:new 0 0 227.3 227.3;" xml:space="preserve"
	>
<style type="text/css">
	.st0{fill:none;stroke:#E1E0E4;stroke-width:1.1;}
	.st1{fill:none;stroke:#E1E0E4;stroke-width:0.9;}
	.st2{fill:none;stroke:#E1E0E4;stroke-width:0.8;}
	.st3{fill:none;stroke:#E1E0E4;stroke-width:1.016;}
	.st4{fill:none;stroke:#E1E0E4;stroke-width:0.762;}
	.st5{fill:none;stroke:#E1E0E4;stroke-width:0.508;}
	.st6{fill:none;stroke:#E1E0E4;stroke-width:0.254;}
	.st7{fill:none;}
	.st8{fill:none;stroke:#E1E0E4;stroke-width:0.203;}
	.st9{fill:none;stroke:#E1E0E4;stroke-width:0.127;}
</style>
<path class="st0" d="M113.8,102.8c1.7,0,2.9,0.9,4.3,1.6c1.2,0.6,2.8,0.9,3.7,1.9c1,1.1,1.3,2.6,1.8,4c0.4,1.2,1.2,2.2,1.2,3.5
	c0,1.6-0.9,2.9-1.6,4.3c-0.7,1.5-1.2,3.1-2.5,4.2c-0.9,0.8-2.3,0.9-3.4,1.3c-1.2,0.5-2.2,1.2-3.5,1.2c-1.7,0-2.9-0.9-4.3-1.6
	c-1.3-0.7-3.1-1.1-4-2.3c-1-1.1-1-2.6-1.5-4c-0.3-1-1.2-2-1.2-3.1c0-1.8,1.2-3.6,2-5.1c0.6-1.1,0.6-2.1,1.5-2.9c1.1-1,2.5-1.3,4-1.8
	C111.4,103.6,112.6,102.8,113.8,102.8z"/>
<path class="st1" d="M113.8,99.3c2.3,0,3.8,1.1,5.7,2.1c1.6,0.8,3.6,1.2,4.8,2.5c1.4,1.4,1.7,3.5,2.4,5.3c0.6,1.6,1.6,2.9,1.6,4.7
	c0,2.2-1.2,3.9-2.1,5.7c-0.9,2-1.5,4.1-3.2,5.5c-1.2,1-3,1.2-4.6,1.7c-1.6,0.6-2.9,1.6-4.7,1.6c-2.3,0-3.8-1.1-5.7-2.1
	c-1.8-0.9-4-1.5-5.3-3s-1.4-3.4-2-5.3c-0.4-1.3-1.6-2.7-1.6-4.2c0-2.4,1.6-4.8,2.6-6.8c0.8-1.5,0.8-2.8,2-3.9
	c1.5-1.4,3.3-1.7,5.3-2.4C110.6,100.3,112.2,99.3,113.8,99.3z"/>
<path class="st2" d="M118.3,97.3c2.6,0.7,4,2.5,5.9,4.1c1.6,1.4,3.8,2.5,4.8,4.3c1.1,2,0.9,4.5,1.1,6.8c0.2,2,0.9,3.8,0.3,5.8
	c-0.7,2.5-2.6,4-4.1,5.9c-1.7,2-3,4.2-5.4,5.3c-1.7,0.8-3.8,0.4-5.7,0.6c-2,0.2-3.7,0.9-5.8,0.3c-2.6-0.7-4-2.4-5.9-4.1
	c-1.8-1.5-4.1-2.9-5.1-5s-0.5-4.3-0.6-6.7c-0.1-1.6-1-3.5-0.5-5.2c0.7-2.8,3.2-4.9,5-6.9c1.3-1.4,1.8-2.9,3.5-3.8
	c2.1-1.1,4.3-0.9,6.7-1.1C114.3,97.5,116.4,96.8,118.3,97.3z"/>
<path class="st2" d="M118.6,94.1c3.1,0.8,4.7,2.8,7,4.7c1.9,1.6,4.5,2.8,5.7,5c1.3,2.4,1.2,5.2,1.5,8c0.2,2.3,1.1,4.5,0.5,6.8
	c-0.7,2.9-3,4.8-4.7,7c-1.9,2.4-3.5,5.1-6.2,6.4c-2,0.9-4.5,0.6-6.7,0.8c-2.3,0.3-4.4,1.1-6.8,0.5c-3.1-0.8-4.7-2.8-7-4.7
	c-2.1-1.8-4.9-3.4-6.1-5.8c-1.3-2.5-0.7-5-0.8-7.9c-0.1-1.9-1.2-4.2-0.7-6.1c0.8-3.3,3.7-5.9,5.8-8.2c1.5-1.7,2-3.4,4-4.5
	c2.5-1.4,5-1.2,7.9-1.4C113.9,94.4,116.4,93.5,118.6,94.1z"/>
<path class="st3" d="M99.8,94.9c3-2.2,6.1-2.2,9.5-2.8c2.8-0.5,5.9-2,8.7-1.5c3.2,0.6,5.7,2.8,8.4,4.6c2.3,1.5,4.9,2.3,6.6,4.6
	c2.1,2.8,2.2,6.3,2.8,9.5c0.8,3.6,2,6.9,1.1,10.4c-0.6,2.5-2.8,4.5-4.3,6.7c-1.5,2.3-2.3,4.8-4.6,6.6c-3,2.2-6.1,2.2-9.5,2.8
	c-3.2,0.6-6.7,2-9.9,1.3c-3.2-0.7-5.1-3.1-7.8-5.1c-1.8-1.4-4.7-2-6.1-3.9c-2.4-3.2-2.6-7.7-3.2-11.4c-0.4-2.7-1.6-4.4-1.1-7.1
	c0.6-3.3,2.7-5.4,4.6-8.2C96.7,99.4,97.7,96.5,99.8,94.9z"/>
<path class="st4" d="M113.8,85.8c4.4,0,7.3,2.2,11,4c3,1.5,7,2.3,9.3,4.7c2.6,2.7,3.4,6.7,4.7,10.3c1.1,3,3,5.6,3,9
	c0,4.2-2.4,7.5-4,11c-1.8,3.9-3,8-6.3,10.7c-2.4,1.9-5.9,2.3-8.8,3.4c-3.1,1.2-5.5,3-9,3c-4.4,0-7.3-2.2-11-4
	c-3.4-1.7-7.8-2.9-10.2-5.7c-2.5-2.9-2.6-6.5-3.8-10.3c-0.8-2.6-3-5.2-3-8c0-4.7,3-9.2,5-13c1.5-2.8,1.6-5.3,3.9-7.5
	c2.9-2.7,6.3-3.2,10.1-4.5C107.7,87.8,110.7,85.8,113.8,85.8z"/>
<path class="st4" d="M110.3,82.6c4.9-0.5,8.5,1.6,12.8,3.1c3.6,1.3,8.2,1.7,11,4.2c3.3,2.8,4.6,7,6.5,10.9c1.6,3.2,4,5.9,4.5,9.7
	c0.5,4.6-1.8,8.6-3.2,12.8c-1.5,4.6-2.4,9.2-5.7,12.6c-2.4,2.4-6.3,3.2-9.4,4.8c-3.3,1.7-5.8,4-9.7,4.4c-5,0.5-8.4-1.6-12.8-3.1
	c-4-1.5-9-2.3-12.2-5.2c-3.2-3-3.8-6.9-5.5-11c-1.2-2.8-4-5.4-4.3-8.6c-0.6-5.2,2.2-10.6,4-15.1c1.3-3.4,1.1-6.1,3.5-8.8
	c2.9-3.3,6.7-4.4,10.8-6.3C103.6,85.6,106.7,82.9,110.3,82.6z"/>
<path class="st5" d="M110.1,78.8c5.5-0.6,9.4,1.8,14.3,3.5c4,1.4,9.1,1.9,12.3,4.7c3.6,3.1,5.1,7.9,7.2,12.2c1.8,3.6,4.5,6.6,5,10.9
	c0.6,5.2-2,9.7-3.5,14.3c-1.7,5.1-2.6,10.4-6.4,14.2c-2.7,2.7-7,3.6-10.5,5.4c-3.7,1.9-6.5,4.5-10.9,5c-5.5,0.6-9.4-1.7-14.3-3.5
	c-4.5-1.6-10.1-2.5-13.6-5.8s-4.2-7.8-6.1-12.3c-1.3-3.1-4.5-6.1-4.8-9.6c-0.6-5.8,2.5-11.8,4.5-16.9c1.5-3.8,1.3-6.8,3.9-9.9
	c3.2-3.7,7.5-4.9,12-7C102.6,82.2,106.1,79.3,110.1,78.8z"/>
<path class="st5" d="M113.7,74.7c6.1,0,10.2,3.1,15.3,5.6c4.2,2.1,9.8,3.2,13,6.6c3.6,3.8,4.7,9.3,6.5,14.3
	c1.5,4.2,4.2,7.8,4.2,12.5c0,5.8-3.3,10.4-5.6,15.3c-2.5,5.4-4.1,11.1-8.7,14.8c-3.3,2.7-8.2,3.2-12.2,4.7
	c-4.3,1.6-7.7,4.2-12.5,4.2c-6.1,0-10.1-3-15.3-5.6c-4.8-2.3-10.8-4-14.2-8c-3.5-4.1-3.7-9-5.3-14.3c-1.1-3.6-4.2-7.2-4.2-11.1
	c0-6.5,4.2-12.7,7-18.1c2.1-4,2.2-7.4,5.4-10.4c4-3.7,8.8-4.5,14.1-6.3C105.1,77.6,109.3,74.7,113.7,74.7z"/>
<path class="st5" d="M113.7,69.5c6.9,0,11.5,3.5,17.4,6.3c4.8,2.3,11.1,3.6,14.7,7.5c4.1,4.3,5.3,10.5,7.4,16.2
	c1.7,4.7,4.7,8.9,4.7,14.2c0,6.6-3.8,11.8-6.3,17.4c-2.8,6.2-4.7,12.6-9.9,16.8c-3.7,3-9.3,3.6-13.8,5.3c-4.8,1.8-8.7,4.7-14.2,4.7
	c-7,0-11.5-3.4-17.4-6.3c-5.4-2.6-12.2-4.5-16.1-9c-4-4.6-4.2-10.2-6-16.2c-1.2-4.1-4.7-8.2-4.7-12.6c0-7.4,4.7-14.4,7.9-20.5
	c2.3-4.5,2.5-8.4,6.1-11.8c4.5-4.2,10-5.1,16-7.2C104,72.7,108.7,69.5,113.7,69.5z"/>
<path class="st5" d="M113.6,63.1c7.9,0,13.2,1.9,19.9,5.1c5.5,2.7,12.4,5.1,16.5,9.4c4.7,5,7.8,10.8,10.2,17.3
	c2,5.4,3.9,12.6,3.9,18.7c0,7.5-1.4,13.5-4.3,19.9c-3.2,7-8.3,14.4-14.2,19.2c-4.2,3.5-9.3,5.6-14.6,7.5c-5.5,2.1-11.3,3.9-17.5,3.9
	c-8,0-13.2-3.9-19.9-7.2c-6.2-3-14-5.2-18.5-10.3c-4.6-5.3-5.9-10.2-7.9-17.1c-1.4-4.6-4.3-10.8-4.3-15.9c0-8.4,2.3-16.4,5.9-23.4
	c2.7-5.1,6-9.6,10.2-13.6c5.1-4.8,11-7.7,17.8-10.1C102.1,64.8,107.9,63.1,113.6,63.1z"/>
<path class="st6" d="M113.6,52.8c9.5,0,15.9,4.8,23.9,8.7c6.6,3.2,15.2,5,20.3,10.3c5.7,6,7.3,14.4,10.2,22.3
	c2.4,6.5,6.5,12.2,6.5,19.6c0,9-3.8,16.8-7.3,24.5c-3.9,8.5-8,15.8-15.1,21.6c-5.1,4.2-8.8,6.6-15.1,9c-6.7,2.5-15.8,5.7-23.3,5.7
	c-9.6,0-16-5-24.1-9c-7.4-3.6-15.5-6.5-20.8-12.7c-5.5-6.4-7.7-12.6-10.2-20.8c-1.7-5.6-5.7-12.2-5.7-18.4c0-10.1,5.4-20.6,9.8-29
	c3.2-6.2,4.5-10.8,9.5-15.5c6.2-5.8,13.8-7,22-9.8C100.3,57.2,106.7,52.8,113.6,52.8z"/>
<path class="st6" d="M113.8,43.6c11,0,18.3,5.5,27.6,10c7.6,3.7,17.6,5.8,23.4,11.9c6.5,6.9,8.4,16.7,11.7,25.7
	c2.8,7.5,7.5,14.1,7.5,22.6c0,10.4-4.3,19.9-8.4,28.7c-4.5,9.8-9.1,18.8-17.3,25.5c-5.9,4.8-14.7,5.7-22,8.4
	c-7.7,2.9-13.9,7.5-22.6,7.5c-11.1,0-18.3-5.5-27.6-10c-8.6-4.2-19.4-7.2-25.6-14.4c-6.3-7.3-6.6-16.3-9.5-25.8
	c-1.9-6.4-7.5-13-7.5-20.1C43.5,101.9,51,90.7,56,81c3.7-7.1,4-13.3,9.8-18.7c7.1-6.7,15.9-8.1,25.3-11.4
	C98.4,48.7,105.9,43.6,113.8,43.6z"/>
<path class="st7" d="M113.8,33.1c12.7,0,21,6.3,31.7,11.5c8.8,4.3,20.2,6.6,26.9,13.6c7.5,7.9,9.7,19.2,13.5,29.6
	c3.2,8.7,8.6,16.2,8.6,25.9c0,12-6.9,21.5-11.5,31.7c-5.1,11.2-8.5,22.9-18,30.7c-6.8,5.6-16.9,6.5-25.3,9.7
	c-8.8,3.3-16,8.6-25.9,8.6c-12.7,0-21-6.3-31.7-11.5c-9.9-4.8-22.3-8.3-29.4-16.5c-7.3-8.4-7.6-18.7-10.9-29.6
	c-2.2-7.4-8.6-14.9-8.6-23.1c0-13.4,8.6-26.3,14.4-37.5c4.3-8.2,4.5-15.3,11.2-21.5C67,47.2,77,45.5,87.9,41.8
	C96.1,39,104.7,33.1,113.8,33.1z"/>
<path class="st8" d="M113.8,33.1c12.7,0,21,6.3,31.7,11.5c8.8,4.3,20.2,6.6,26.9,13.6c7.5,7.9,9.7,19.2,13.5,29.6
	c3.2,8.7,8.6,16.2,8.6,25.9c0,12-6.9,21.5-11.5,31.7c-5.1,11.2-8.5,22.9-18,30.7c-6.8,5.6-16.9,6.5-25.3,9.7
	c-8.8,3.3-16,8.6-25.9,8.6c-12.7,0-21-6.3-31.7-11.5c-9.9-4.8-22.3-8.3-29.4-16.5c-7.3-8.4-7.6-18.7-10.9-29.6
	c-2.2-7.4-8.6-14.9-8.6-23.1c0-13.4,8.6-26.3,14.4-37.5c4.3-8.2,4.5-15.3,11.2-21.5C67,47.2,77,45.5,87.9,41.8
	C96.1,39,104.7,33.1,113.8,33.1z"/>
<path class="st8" d="M113.8,19c14.9,0,24.7,7.5,37.3,13.6c10.3,5,23.8,7.8,31.6,16c8.8,9.3,11.4,22.5,15.9,34.8
	c3.7,10.2,10.2,19,10.2,30.5c0,14.1-8.1,25.3-13.6,37.3c-6,13.2-10,27-21.1,36.1c-8,6.5-19.9,7.7-29.7,11.4
	c-10.4,3.9-18.8,10.2-30.5,10.2c-15,0-24.7-7.4-37.3-13.6c-11.6-5.7-26.3-9.7-34.6-19.4c-8.5-9.9-9-22-12.8-34.8
	C26.6,132.4,19,123.6,19,114c0-15.8,10.1-31,16.9-44.1c5-9.6,5.3-18,13.2-25.3c9.7-9,21.5-11,34.2-15.4C93,25.8,103.1,19,113.8,19z"
	/>
<path class="st7" d="M41.2,36.1"/>
<path class="st9" d="M113.6,7.5c16.6,0,30.5,4.1,44.5,10.9c11.5,5.6,23.8,13,32.5,22.2c9.9,10.4,16.9,22.3,22,36
	c4.2,11.4,7.1,24.2,7.1,37c0,15.7-15.3,28.1-21.4,41.5c-6.8,14.8-5,30.4-17.4,40.6c-8.9,7.3-22.2,8.6-33.2,12.7
	c-11.6,4.4-23,6.9-36.2,6.9c-16.7,0-25.5-3.8-39.6-10.7c-13-6.4-29.4-10.9-38.7-21.7C23.7,172,19,162.1,14.7,147.8
	c-2.9-9.7-7.1-23.3-7.1-34c0-17.7,8.2-37.4,15.8-52.1C28.9,50.9,36.9,48,45.7,39.8C56.5,29.7,63.9,20,78.2,15.1
	C88.9,11.4,101.6,7.5,113.6,7.5z"/>
<path class="st9" d="M113.6,0.1c17.8,0,29.6,8.9,44.6,16.2c12.3,6,28.5,9.4,37.8,19.2c10.6,11.1,13.6,27,19,41.6
	c4.5,12.2,12.2,22.8,12.2,36.5c0,16.8-9.6,30.2-16.2,44.6c-7.2,15.8-12,32.3-25.3,43.2c-9.5,7.8-23.8,9.2-35.5,13.6
	c-12.4,4.7-22.5,12.2-36.5,12.2c-17.9,0-29.6-8.8-44.6-16.2c-13.9-6.8-31.4-11.6-41.4-23.2c-10.2-11.9-10.7-26.3-15.4-41.7
	c-3.2-10.4-12.2-21-12.2-32.5c0-18.9,12.1-37.1,20.3-52.7c6-11.5,6.4-21.5,15.8-30.3c11.6-10.8,25.7-13.1,41-18.4
	C88.7,8.3,100.8,0.1,113.6,0.1z"/>
</svg>
