<?xml version="1.0" encoding="utf-8"?>
<!-- Generator: Adobe Illustrator 21.0.0, SVG Export Plug-In . SVG Version: 6.00 Build 0)  -->
<svg version="1.1" id="pattern" xmlns="http://www.w3.org/2000/svg" xmlns:xlink="http://www.w3.org/1999/xlink" x="0px" y="0px"
	 width="750.9px" height="544.9px" viewBox="0 0 750.9 544.9" style="enable-background:new 0 0 750.9 544.9;" xml:space="preserve"
	>
<style type="text/css">
	.st0{fill:none;stroke:#E1E0E4;stroke-width:0.508;}
	.st1{fill:none;stroke:#E1E0E4;stroke-width:1.016;}
	.st2{fill:none;stroke:#E1E0E4;stroke-width:2.286;}
	.st3{fill:none;stroke:#E1E0E4;stroke-width:1.524;}
	.st4{fill:none;stroke:#E1E0E4;stroke-width:0.762;}
	.st5{fill:none;stroke:#E1E0E4;stroke-width:1.27;}
</style>
<path class="st0" d="M340.3,33.9c0,0,11,77.6-35.2,112.1c-31,23.2-108.1,25.5-112.2,75.6c-5.4,66.5,170.6,87.1,170.6,259.4"/>
<path class="st1" d="M312.9,121.2c-37.3,45.8-97.3,34-130.5,50.8c-49.9,25.3-60.1,78.4,92.6,181.2c82.4,55.5,91.3,149.9,91.3,149.9"
	/>
<path class="st2" d="M327.3,6.5c-2.8,19.9,3.8,26.4-10.4,50.8c-17.2,29.5-68.4,25.1-197,26.1C-1,84.4,1.1,168.3,1.1,183.8
	C5,350.3,367.7,423.7,367.7,544.9"/>
<path class="st1" d="M220.3,81.8c0,0-12.7,22.3-71.8,23.5c-82.9,1.6-121.2,24.8-125.2,79.5c-7.5,102.8,249.1,207.8,322.2,309"/>
<path class="st3" d="M366.2,529.6c0-137.3-380.4-277.9-250.2-370.1c49.1-34.7,77.4-14,130.5-29.8c30.6-9.1,57.8-24.6,60-60.8"/>
<path class="st0" d="M354.7,79.5c0,0-2.1,83.3-39.1,127.8"/>
<path class="st4" d="M340,114.7c-9.5,56.4-83.6,54.6-83.5,99.1c0.1,70.4,93.7,47.1,93.7,192.9"/>
<path class="st0" d="M406.3,34.3c0,0-11,77.6,35.2,112c31,23.1,108.2,25.5,112.3,75.6c5.4,66.4-170.7,85.7-170.7,257.9"/>
<path class="st1" d="M433.7,121.5c37.3,45.8,97.3,34,130.5,50.8c49.9,25.3,60.1,78.4-92.7,181.1c-82.4,55.4-91.4,149.8-91.4,149.8"
	/>
<path class="st2" d="M419.3,6.9c2.9,19.9-3.8,26.4,10.4,50.8c17.2,29.5,68.5,25.1,197.1,26.1c121,0.9,118.9,84.8,118.9,100.3
	C741.8,350.4,378.9,423.8,378.9,545"/>
<path class="st1" d="M526.4,82.2c0,0,12.7,22.3,71.8,23.4c83,1.6,121.3,24.8,125.3,79.5C731,287.8,474.3,392.7,401,493.8"/>
<path class="st3" d="M380.2,526.7c0-137.4,380.9-274,250.7-366.2c-49.1-34.8-77.4-14-130.5-29.8c-30.7-9-57.8-24.6-60.1-60.8"/>
<path class="st4" d="M403,114.7c9.5,56.4,88.3,54.9,88.2,99.3c-0.1,70.3-96.3,51.5-96.3,188.8"/>
<path class="st5" d="M384.7,0c0,0-5.5,164.8,28.7,187.7"/>
<path class="st5" d="M370.3,60v195.6"/>
</svg>
