<svg xmlns="http://www.w3.org/2000/svg" width="158" height="189" viewBox="0 0 158 189">
  <path fill="none" stroke="#cdcdcd" stroke-miterlimit="50"
        d="M68.88 7084.8c-28.4 5.74-41.94-37.55-44.48-49.28-2.55-11.73-3.38-42.28 36.83-52.15 25.32-6.2 34.88 9.1 42.37 25.17 7.5 16.06 6.88 41.78-6.4 59.7-10.7 14.47-13.4 13.55-28.32 16.56z"
        transform="translate(-22 -6939)"/>
  <path fill="none" stroke="#cdcdcd" stroke-miterlimit="50" stroke-width=".6"
        d="M81.3 7099.49c-37.56 8.24-54.48-47.03-57.58-62.04-3.1-15.01-3.55-54.3 49.67-68.2 33.5-8.76 45.78 10.64 55.31 31.08 9.53 20.44 8.17 53.55-9.71 77-14.43 18.94-17.96 17.83-37.69 22.16z"
        transform="translate(-22 -6939)"/>
  <path fill="none" stroke="#cdcdcd" stroke-miterlimit="50" stroke-width=".4"
        d="M106.23 7126.94c-52.54 11.03-76.95-67.78-81.49-89.16-4.53-21.38-5.67-77.19 68.75-95.98 46.85-11.83 64.3 15.94 77.92 45.15 13.62 29.2 12.12 76.2-12.63 109.2-19.99 26.63-24.96 25-52.55 30.79z"
        transform="translate(-22 -6939)"/>
  <path fill="none" stroke="#cdcdcd" stroke-miterlimit="50" stroke-width=".4"
        d="M93.54 7112.29c-44.54 9.27-65.32-57.56-69.19-75.69-3.87-18.12-4.88-65.42 58.2-81.24 39.7-9.96 54.53 13.61 66.1 38.38 11.58 24.77 10.36 64.6-10.6 92.53-16.91 22.54-21.13 21.15-44.51 26.02z"
        transform="translate(-22 -6939)"/>
</svg>
