<svg xmlns="http://www.w3.org/2000/svg" width="86" height="85" viewBox="0 0 86 85">
  <path fill="none" stroke="#cdcdcd" stroke-miterlimit="50" stroke-width="2.54"
        d="M121.51 3817.43c15.2-2.58 22.44 16.89 23.8 22.16 1.36 5.27 1.8 19.02-19.7 23.45-13.55 2.8-18.67-4.09-22.68-11.31-4-7.23-3.68-18.8 3.42-26.86 5.74-6.5 7.18-6.09 15.16-7.44z"
        transform="translate(-63 -3798)"/>
  <path fill="none" stroke="#cdcdcd" stroke-miterlimit="50" stroke-width="1.52"
        d="M116.3 3810.82c20.1-3.71 29.16 21.15 30.82 27.9 1.66 6.75 1.9 24.42-26.58 30.68-17.92 3.93-24.5-4.79-29.6-13.98-5.1-9.19-4.36-24.09 5.2-34.63 7.72-8.52 9.62-8.02 20.17-9.97z"
        transform="translate(-63 -3798)"/>
  <path fill="none" stroke="#cdcdcd" stroke-miterlimit="50" stroke-width="1.02"
        d="M110.22 3804.35c23.82-4.18 34.93 25.93 37 34.1 2.07 8.16 2.62 29.48-31.12 36.61-21.24 4.48-29.17-6.13-35.36-17.3-6.2-11.16-5.54-29.11 5.67-41.69 9.04-10.16 11.3-9.53 23.8-11.72z"
        transform="translate(-63 -3798)"/>
  <path fill="none" stroke="#cdcdcd" stroke-miterlimit="50" stroke-width="1.02"
        d="M103.45 3798.48c28.12-4.96 41.18 30.48 43.6 40.09 2.43 9.62 3.04 34.72-36.78 43.17-25.06 5.32-34.4-7.17-41.69-20.3-7.29-13.14-6.49-34.28 6.76-49.12 10.7-11.97 13.35-11.24 28.11-13.84z"
        transform="translate(-63 -3798)"/>
</svg>
