<?xml version="1.0" encoding="utf-8"?>
<!-- Generator: Adobe Illustrator 21.1.0, SVG Export Plug-In . SVG Version: 6.00 Build 0)  -->
<svg version="1.1" id="Шар_1" xmlns="http://www.w3.org/2000/svg" xmlns:xlink="http://www.w3.org/1999/xlink" x="0px" y="0px"
	 viewBox="0 0 299.8 299.8" style="enable-background:new 0 0 299.8 299.8;" xml:space="preserve">
<style type="text/css">
	.st0{fill-rule:evenodd;clip-rule:evenodd;fill:none;stroke:#000000;stroke-width:0.6;stroke-miterlimit:10;}
	.st1{fill-rule:evenodd;clip-rule:evenodd;fill:none;stroke:#000000;stroke-width:0.4;stroke-miterlimit:10;}
	.st2{fill-rule:evenodd;clip-rule:evenodd;fill:none;stroke:#000000;stroke-width:0.2;stroke-miterlimit:10;}
</style>
<path class="st0" d="M149.9,26.1c19.8,0,36.3,4.9,53,13c13.7,6.7,28.3,15.5,38.7,26.5c11.7,12.4,20.2,26.6,26.2,42.9
	c5,13.6,8.5,28.8,8.5,44.1c0,18.8-15.8,36.1-23.1,52.1c-8.1,17.6-8.3,33.6-23.1,45.7c-10.6,8.7-26.5,10.2-39.5,15.1
	c-13.8,5.2-27.5,8.2-43.1,8.2c-19.9,0-30.4-4.5-47.2-12.7c-15.4-7.6-35-13-46.1-25.9c-11.4-13.2-17-24.9-22.1-42
	c-3.5-11.6-8.5-27.8-8.5-40.5c0-21,9.7-44.6,18.8-62C49,77.7,53.2,69.9,63.7,60.1c12.9-12,26.9-19.2,44-25.1
	C120.5,30.6,135.6,26.1,149.9,26.1z"/>
<path class="st1" d="M149.9,16.1c21,0,36.1,6.6,53.7,15.2c14.5,7.1,32.4,14.9,43.4,26.5c12.4,13.1,19.9,31.5,26.3,48.8
	c5.3,14.4,10.5,27.1,10.5,43.2c0,19.8-11.4,35.6-19.1,52.6c-8.5,18.6-14.2,38-29.8,50.9c-11.2,9.2-28,10.8-41.9,16
	c-14.6,5.5-26.5,14.3-43,14.3c-21.1,0-34.8-10.4-52.6-19.1c-16.3-8-37-13.7-48.8-27.4c-12-14-17-29.4-22.5-47.5
	c-3.7-12.3-9.9-26.3-9.9-39.8c0-22.3,10.9-44.5,20.5-62.9c7.1-13.6,10.9-24.6,22-34.9c13.6-12.7,28.6-18,46.6-24.1
	C118.8,23.3,134.7,16.1,149.9,16.1z"/>
<path class="st2" d="M149.9,0.1c23.5,0,39.1,11.8,58.9,21.4c16.3,7.9,37.5,12.3,49.9,25.3c13.9,14.7,18,35.6,25,54.9
	c5.9,16.1,16.1,30,16.1,48.2c0,22.2-12.7,39.9-21.4,58.9c-9.5,20.9-15.9,42.6-33.4,57c-12.6,10.3-31.4,12.1-46.9,17.9
	c-16.4,6.2-29.6,16.1-48.2,16.1c-23.6,0-39-11.7-58.9-21.4c-18.3-9-41.5-15.4-54.6-30.6c-13.5-15.6-14.1-34.7-20.3-55
	C12,179,0.1,165,0.1,149.9c0-24.9,16-48.9,26.8-69.6c7.9-15.2,8.4-28.4,20.8-40c15.2-14.2,33.9-17.3,54.1-24.2
	C117,10.9,132.9,0.1,149.9,0.1z"/>
</svg>
