<?xml version="1.0" encoding="utf-8"?>
<!-- Generator: Adobe Illustrator 19.2.1, SVG Export Plug-In . SVG Version: 6.00 Build 0)  -->
<!DOCTYPE svg PUBLIC "-//W3C//DTD SVG 1.1//EN" "http://www.w3.org/Graphics/SVG/1.1/DTD/svg11.dtd">
<svg version="1.1" id="Layer_1" xmlns="http://www.w3.org/2000/svg" xmlns:xlink="http://www.w3.org/1999/xlink" x="0px" y="0px"
	 viewBox="0 0 16 12" style="enable-background:new 0 0 16 12;" xml:space="preserve">
<g>
	<path d="M0,3.9c0,2.3,0,4.7,0,7c0,0.1,0.1,0.3,0.2,0.5C0.6,11.8,1,12,1.2,12c4.5,0,9,0,13.6,0c0.1,0,0.5-0.1,0.9-0.4
		c0.3-0.3,0.4-0.7,0.4-0.8c0-2.3,0-4.6,0-6.9c-0.1,0.1-0.2,0.2-0.4,0.3c-0.2,0.1-0.3,0.3-0.5,0.4l0,0c-0.3,0.2-0.7,0.5-1.2,0.8
		c-0.7,0.5-0.8,0.6-1.3,0.9c-0.2,0.1-1.2,0.8-2.6,1.7C9.6,8.3,9.2,8.6,8.6,8.7C8.2,8.8,7.9,8.8,7.7,8.7c0,0,0,0,0,0
		c0,0-0.2,0-0.4-0.1C6.5,8.5,3.7,6.5,3.7,6.5c-1.3-0.9-1.8-1-2.9-2C0.4,4.3,0.2,4.1,0,3.9z"/>
	<path d="M1.3,0c4.5,0,8.9,0,13.4,0c0.1,0,0.5,0.1,0.9,0.4C15.9,0.8,16,1.2,16,1.3c0,0,0,0.1,0,0.1c0.1,0.7-0.4,1.6-1.2,2.1
		c-3.1,2.1-5.5,3.7-6,4C8.6,7.5,8.3,7.7,8,7.7c-0.4,0-0.6-0.2-0.8-0.2c-2.2-1.3-3.5-2.2-6-4C1,3.3,0.5,2.9,0.2,2.3
		C0.1,2.1-0.1,1.6,0.1,1C0.4,0.3,1.2,0,1.3,0z"/>
</g>
</svg>
