<?xml version="1.0" encoding="utf-8"?>
<!-- Generator: Adobe Illustrator 19.2.1, SVG Export Plug-In . SVG Version: 6.00 Build 0)  -->
<!DOCTYPE svg PUBLIC "-//W3C//DTD SVG 1.1//EN" "http://www.w3.org/Graphics/SVG/1.1/DTD/svg11.dtd">
<svg version="1.1" id="Layer_1" xmlns="http://www.w3.org/2000/svg" xmlns:xlink="http://www.w3.org/1999/xlink" x="0px" y="0px"
	 viewBox="0 0 6 12" style="enable-background:new 0 0 6 12;" xml:space="preserve">
<path d="M0.2,6.4h1.3v5.4c0,0.1,0.1,0.2,0.2,0.2h2.2c0.1,0,0.2-0.1,0.2-0.2V6.4h1.5c0.1,0,0.2-0.1,0.2-0.2l0.2-2c0-0.1,0-0.1,0-0.2
	c0,0-0.1-0.1-0.1-0.1H4.1V2.8c0-0.4,0.2-0.6,0.6-0.6c0.1,0,1.1,0,1.1,0C5.9,2.2,6,2.1,6,2V0.2C6,0.1,5.9,0,5.8,0H4.3c0,0,0,0-0.1,0
	C3.9,0,3,0.1,2.2,0.7C1.4,1.5,1.5,2.4,1.6,2.6V4H0.2C0.1,4,0,4.1,0,4.2v2C0,6.3,0.1,6.4,0.2,6.4z"/>
</svg>
