<?xml version="1.0" encoding="utf-8"?>
<!-- Generator: Adobe Illustrator 19.2.1, SVG Export Plug-In . SVG Version: 6.00 Build 0)  -->
<!DOCTYPE svg PUBLIC "-//W3C//DTD SVG 1.1//EN" "http://www.w3.org/Graphics/SVG/1.1/DTD/svg11.dtd">
<svg version="1.1" id="Layer_1" xmlns="http://www.w3.org/2000/svg" xmlns:xlink="http://www.w3.org/1999/xlink" x="0px" y="0px"
	 viewBox="0 0 10.1 10.1" style="enable-background:new 0 0 10.1 10.1;" xml:space="preserve">
<path d="M7.3,0H2.8C1.2,0,0,1.2,0,2.8v4.5c0,1.5,1.2,2.8,2.8,2.8h4.5c1.5,0,2.8-1.2,2.8-2.8V2.8C10.1,1.2,8.8,0,7.3,0z M5,7.1
	c-1.1,0-2-0.8-2-1.9c0-1,0.9-2.1,2-2.1s2,1.1,2,2.1C7,6.2,6.1,7.1,5,7.1z M8.4,3.9c-0.6,0-1.1-0.5-1.1-1.1s0.5-1.1,1.1-1.1
	s1.1,0.5,1.1,1.1S9,3.9,8.4,3.9z"/>
</svg>
