<?xml version="1.0" encoding="utf-8"?>
<!-- Generator: Adobe Illustrator 19.2.1, SVG Export Plug-In . SVG Version: 6.00 Build 0)  -->
<!DOCTYPE svg PUBLIC "-//W3C//DTD SVG 1.1//EN" "http://www.w3.org/Graphics/SVG/1.1/DTD/svg11.dtd">
<svg version="1.1" id="Layer_1" xmlns="http://www.w3.org/2000/svg" xmlns:xlink="http://www.w3.org/1999/xlink" x="0px" y="0px"
	 viewBox="0 0 14 18" style="enable-background:new 0 0 14 18;" xml:space="preserve">
<path d="M11.9,1.9c-1.1-1-2.4-1.5-2.4-1.5C8.7,0.1,8.1,0,7.8,0C7.4,0,4.5-0.3,2.2,1.8c-1.1,1-1.5,2.1-1.7,2.8
	c-1.1,2.9-0.2,5.5,0.2,6.2c0.4,1,0.9,1.7,1.3,2.2c1.7,1.7,3.4,3.4,5.1,5c0.6-0.6,1.6-1.6,2.8-2.7c1.8-1.7,2.7-2.6,2.8-2.8
	C14.9,9.3,14.1,3.9,11.9,1.9z M8.9,9.3C8.4,9.8,7.8,10,7.1,10S5.8,9.7,5.3,9.3C4.8,8.9,4.6,8.2,4.6,7.5c0-0.6,0.3-1.4,0.7-1.8
	C5.8,5.3,6.5,5,7.1,5c0.7,0,1.3,0.3,1.8,0.7c0.5,0.5,0.7,1.1,0.7,1.8C9.7,8.2,9.3,8.9,8.9,9.3z"/>
</svg>
