<?xml version="1.0" encoding="utf-8"?>
<!-- Generator: Adobe Illustrator 19.2.1, SVG Export Plug-In . SVG Version: 6.00 Build 0)  -->
<!DOCTYPE svg PUBLIC "-//W3C//DTD SVG 1.1//EN" "http://www.w3.org/Graphics/SVG/1.1/DTD/svg11.dtd">
<svg version="1.1" id="Layer_1" xmlns="http://www.w3.org/2000/svg" xmlns:xlink="http://www.w3.org/1999/xlink" x="0px" y="0px"
	 viewBox="0 0 183.4 16.1" style="enable-background:new 0 0 183.4 16.1;" xml:space="preserve">
<style type="text/css">
	.st0{fill:#434243;}
</style>
<g>
	<path id="XMLID_1815_" class="st0" d="M6.4,0.3c1.8,0,3.1,0.3,4.1,0.9c1,0.8,1.7,1.9,1.7,3.5c0,3.1-2.3,4.6-4.8,4.9
		c-0.4,0-0.7,0-1,0L4.8,9.2v3.4c0,2,0.2,2.2,2.3,2.3v0.8H0V15c1.8-0.2,2-0.3,2-2.3V3.4c0-2-0.2-2.2-1.9-2.3V0.3H6.4z M4.8,8.3
		C5,8.5,5.6,8.6,6.2,8.6c1.1,0,3-0.7,3-3.8c0-2.7-1.6-3.6-3.2-3.6c-0.5,0-0.9,0.1-1,0.3C4.8,1.6,4.8,1.8,4.8,2.3V8.3z"/>
	<path id="XMLID_1812_" class="st0" d="M31.3,7.9c0,5.1-3.6,8.2-8,8.2c-4.6,0-7.9-3.4-7.9-8C15.4,4,18.3,0,23.5,0
		C27.8,0,31.3,3.2,31.3,7.9 M18.5,7.6c0,4.2,2,7.6,5.2,7.6c2.4,0,4.4-2.2,4.4-6.6c0-4.8-2.2-7.6-5-7.6C20.6,0.9,18.5,3.4,18.5,7.6"
		/>
	<path id="XMLID_1811_" class="st0" d="M55.5,1.1c-1.6,0.2-1.9,0.5-2.6,2.5C52.4,5.1,51,9.4,49,16h-1.1c-1.3-3.6-2.7-7.4-4-11h0
		c-1.3,3.8-2.5,7.4-3.6,11h-1.1c-1.3-4.3-2.5-8.3-3.8-12.5c-0.6-1.9-1-2.2-2.4-2.4V0.3h6.6v0.8c-1.8,0.2-1.8,0.5-1.5,1.7
		c0.8,2.9,1.7,5.8,2.6,8.7h0c1.2-3.6,2.4-7.3,3.6-11h1c1.3,3.7,2.7,7.4,4,11.1h0c0.9-3,2-7,2.4-8.5c0.3-1.4,0.2-1.8-1.7-2V0.3h5.4
		V1.1z"/>
	<path id="XMLID_1810_" class="st0" d="M70.9,11.9c-0.1,1-0.6,3.1-0.8,3.9H58.2V15c2.1-0.2,2.3-0.3,2.3-2.3V3.4c0-2.1-0.2-2.2-2-2.3
		V0.3h10.9c0,0.5,0.1,2.1,0.2,3.5L68.9,4c-0.2-0.9-0.5-1.6-0.9-2c-0.4-0.5-1-0.6-2.5-0.6h-1.4c-0.8,0-0.9,0-0.9,0.8v5.2h1.8
		c2.1,0,2.3-0.1,2.6-1.8h0.8v4.7h-0.8c-0.3-1.7-0.6-1.8-2.6-1.8h-1.8v4.2c0,1.1,0.1,1.7,0.6,1.9c0.4,0.2,1.3,0.3,2.3,0.3
		c1.4,0,2.2-0.2,2.7-0.8c0.5-0.5,0.9-1.3,1.3-2.3L70.9,11.9z"/>
	<path id="XMLID_1807_" class="st0" d="M88,15.9c-0.2,0-0.4,0-0.7,0c-2.6-0.1-3.5-0.7-4.5-2.2c-0.7-1-1.4-2.4-2.1-3.6
		c-0.4-0.7-0.8-1-1.8-1h-0.5v3.6c0,2,0.2,2.2,2,2.3v0.8h-6.8V15c1.8-0.2,2.1-0.4,2.1-2.3V3.4c0-1.9-0.2-2.1-2-2.3V0.3H80
		c2,0,3.1,0.2,4.1,0.9c0.9,0.6,1.6,1.7,1.6,3.1c0,2.1-1.3,3.2-3,3.9c0.4,0.7,1.3,2.3,2,3.4c0.8,1.3,1.3,2,1.8,2.5
		c0.5,0.6,1,0.9,1.5,1L88,15.9z M79.2,8.2c1.1,0,1.8-0.2,2.4-0.6c0.8-0.7,1.2-1.6,1.2-2.9c0-2.6-1.5-3.5-3-3.5c-0.6,0-1,0.1-1.2,0.2
		c-0.2,0.1-0.2,0.4-0.2,0.9v5.8H79.2z"/>
	<path id="XMLID_1806_" class="st0" d="M97,15.7V15c1.8-0.2,2-0.3,2-2.3V3.4c0-2-0.2-2.2-2-2.3V0.3h6.8v0.8c-1.8,0.2-2,0.3-2,2.3
		v9.2c0,2,0.2,2.2,2,2.3v0.8H97z"/>
	<path id="XMLID_1805_" class="st0" d="M123.5,1.1c-1.3,0.1-1.8,0.4-1.9,1.4c-0.1,0.7-0.2,1.8-0.2,4V16h-1l-9.9-12h0v5.5
		c0,2.1,0.1,3.2,0.2,3.9c0.1,1.1,0.6,1.5,2.3,1.6v0.8h-5.7V15c1.3-0.1,1.9-0.4,2-1.5c0.1-0.8,0.2-1.8,0.2-4v-5c0-1.6,0-1.9-0.5-2.5
		c-0.5-0.6-1-0.8-2-0.9V0.3h4l9.3,10.9h0.1V6.5c0-2.1-0.1-3.2-0.2-3.9c-0.1-1-0.6-1.4-2.3-1.5V0.3h5.7V1.1z"/>
	<path id="XMLID_1804_" class="st0" d="M147.1,1.1c-1.5,0.2-1.9,0.5-2.8,1.9c-0.9,1.5-1.6,2.7-2.8,4.9c-0.3,0.6-0.4,0.9-0.4,1.6v3.1
		c0,2.1,0.2,2.2,2.3,2.4v0.8h-7.3V15c2-0.1,2.2-0.3,2.2-2.4V9.8c0-0.6-0.1-0.8-0.4-1.3c-0.7-1.4-1.6-2.9-2.9-5.3
		c-0.9-1.6-1.3-1.8-2.6-2V0.3h6.4v0.8c-1.6,0.2-1.6,0.5-1.1,1.3c0.9,1.8,1.9,3.6,2.9,5.3c0.7-1.4,2-3.7,2.6-5.1
		c0.4-1,0.4-1.3-1.4-1.5V0.3h5.4V1.1z"/>
	<path id="XMLID_1801_" class="st0" d="M164.5,7.9c0,5.1-3.6,8.2-8,8.2c-4.6,0-7.9-3.4-7.9-8c0-4.1,2.9-8.1,8.2-8.1
		C161,0,164.5,3.2,164.5,7.9 M151.8,7.6c0,4.2,2,7.6,5.2,7.6c2.4,0,4.4-2.2,4.4-6.6c0-4.8-2.2-7.6-5-7.6
		C153.8,0.9,151.8,3.4,151.8,7.6"/>
	<path id="XMLID_1800_" class="st0" d="M183.4,1.1c-1.3,0.1-1.9,0.5-2,1.4c-0.1,0.7-0.2,1.6-0.2,3.5v2.3c0,2.6-0.4,4.6-1.8,6.1
		c-1.1,1.1-2.7,1.7-4.3,1.7c-1.5,0-2.9-0.3-4-1.2c-1.4-1.1-2-2.8-2-5.6V3.6c0-2.2-0.2-2.3-2-2.5V0.3h6.7v0.8c-1.8,0.1-2,0.3-2,2.5
		v5.2c0,3.6,1.4,5.8,4.1,5.8c3,0,4.2-2.4,4.2-6.3V6c0-1.8-0.1-2.8-0.2-3.5c-0.1-0.9-0.7-1.3-2.3-1.4V0.3h5.8V1.1z"/>
</g>
</svg>
