<?xml version="1.0" encoding="utf-8"?>
<!-- Generator: Adobe Illustrator 19.2.1, SVG Export Plug-In . SVG Version: 6.00 Build 0)  -->
<!DOCTYPE svg PUBLIC "-//W3C//DTD SVG 1.1//EN" "http://www.w3.org/Graphics/SVG/1.1/DTD/svg11.dtd">
<svg version="1.1" id="Layer_1" xmlns="http://www.w3.org/2000/svg" xmlns:xlink="http://www.w3.org/1999/xlink" x="0px" y="0px"
	 viewBox="0 0 159.9 16" style="enable-background:new 0 0 159.9 16;" xml:space="preserve">
<style type="text/css">
	.st0{fill:#434243;}
</style>
<g>
	<g id="XMLID_1512_">
		<path class="st0" d="M14.2,11.7c-0.3,1.1-0.9,2.9-1.3,3.7c-0.6,0.1-2.7,0.6-4.3,0.6C2.6,16,0,12,0,8.3c0-4.8,3.7-8.1,9.1-8.1
			c1.9,0,3.5,0.5,4.2,0.6c0.2,1.3,0.3,2.3,0.5,3.7L13,4.7c-0.7-2.6-2.3-3.5-4.4-3.5C5,1.2,3.1,4.4,3.1,7.9c0,4.3,2.4,7.1,5.7,7.1
			c2.1,0,3.5-1.3,4.6-3.6L14.2,11.7z"/>
	</g>
	<g id="XMLID_1511_">
		<path class="st0" d="M26.5,15.6v-0.7c1.8-0.1,2-0.3,2-2.4V6.8c0-0.8,0-1.9,0.1-4.2h-0.1l-6.4,11.8c-0.2,0.3-0.2,0.6-0.2,0.9v0.3
			H17v-0.7c1.8-0.1,2-0.3,2-2.5V3.7c0-2.1-0.2-2.2-2-2.4V0.6h6.5v0.8c-1.7,0.1-1.9,0.3-1.9,2.3v5c0,1,0,2.2-0.1,4.6h0L28,1.6
			c0.2-0.3,0.3-0.6,0.3-0.8V0.6h4.9v0.8c-1.8,0.1-2,0.3-2,2.4v8.7c0,2.1,0.2,2.3,2,2.4v0.7H26.5z"/>
	</g>
	<g id="XMLID_1510_">
		<path class="st0" d="M43.7,15.6v-0.7c1.7-0.1,1.9-0.3,1.9-2.5V2.7c0-1.1,0-1.2-0.9-1.2h-2.5c-0.8,0-0.8,0.2-0.8,0.8
			c0,5.7-0.7,10.3-2.2,12.5c-0.6,0.8-1.1,1.2-1.6,1.2c-0.6,0-1.1-0.1-1.4-0.2v-0.5c1.2-0.7,1.8-1.5,2.4-2.7c1-1.9,1.7-5.4,1.7-9.7
			c0-1.1-0.3-1.4-2.2-1.5V0.6h12.2v0.7c-1.7,0.1-1.9,0.3-1.9,2.1v9c0,2.2,0.2,2.3,1.9,2.5v0.7H43.7z"/>
	</g>
	<g id="XMLID_1509_">
		<path class="st0" d="M62.5,15.6v-0.7c1.4-0.2,1.5-0.5,1.2-1.4c-0.3-0.8-0.6-1.9-1.1-3H58c-0.3,0.9-0.6,1.7-0.9,2.7
			c-0.4,1.3-0.3,1.5,1.4,1.7v0.7h-5.1v-0.7c1.5-0.2,1.8-0.4,2.6-2.4l4.7-12l1-0.3c1.5,4,2.9,8.2,4.4,12.2c0.8,2,1.1,2.3,2.5,2.5v0.7
			H62.5z M60.4,4L60.4,4c-0.7,1.8-1.4,3.6-2,5.3h3.8L60.4,4z"/>
		<path class="st0" d="M87,7.6c2.5,0.3,4.3,1.4,4.3,3.6c0,1.6-0.8,2.8-2.2,3.5c-1.2,0.7-2.9,1-4.8,1h-5.6v-0.8c1.9-0.1,2-0.3,2-2.2
			v-9c0-1.9-0.2-2.1-1.9-2.2V0.6h6.5c1.8,0,2.9,0.3,3.7,0.8C90,1.9,90.5,2.9,90.5,4C90.5,6.2,88.6,7.1,87,7.6L87,7.6z M84.2,7.2
			c2.3,0,3.4-0.9,3.4-2.8c0-1.9-1.1-2.9-2.7-2.9c-0.5,0-1,0.1-1.1,0.3c-0.2,0.1-0.3,0.5-0.3,1v4.4H84.2z M83.5,12.6
			c0,1.7,0.5,2.2,1.8,2.2c1.5,0,3.1-1,3.1-3.3c0-2.2-1.5-3.3-4.1-3.3h-0.7V12.6z"/>
	</g>
	<g id="XMLID_1507_">
		<path class="st0" d="M114,4.4c-0.3-1.2-0.6-1.9-0.9-2.3c-0.4-0.5-0.9-0.6-2.4-0.6h-1.3v11.1c0,1.9,0.2,2.1,2.3,2.3v0.7h-7.2v-0.7
			c2-0.2,2.2-0.3,2.2-2.3V1.5h-1c-1.9,0-2.3,0.2-2.7,0.6c-0.3,0.4-0.6,1.1-0.9,2.2h-0.8c0.1-1.6,0.2-3.2,0.3-4.4h0.5
			c0.3,0.5,0.6,0.6,1.3,0.6h9.3c0.6,0,0.9-0.1,1.3-0.6h0.5c0,1,0.1,2.9,0.2,4.4L114,4.4z"/>
	</g>
	<g id="XMLID_1506_">
		<path class="st0" d="M130.2,11.9c-0.1,0.9-0.6,3.1-0.8,3.8h-11.6v-0.7c2-0.2,2.2-0.3,2.2-2.3v-9c0-2-0.2-2.1-1.9-2.3V0.6h10.7
			c0,0.5,0.1,2.1,0.2,3.4l-0.8,0.1c-0.2-0.9-0.5-1.6-0.9-2c-0.4-0.4-1-0.6-2.4-0.6h-1.3c-0.8,0-0.9,0-0.9,0.8v5h1.8
			c2,0,2.2-0.1,2.5-1.7h0.8v4.6h-0.8c-0.3-1.7-0.5-1.8-2.5-1.8h-1.8v4.1c0,1.1,0.1,1.6,0.6,1.9c0.4,0.2,1.2,0.3,2.2,0.3
			c1.4,0,2.2-0.2,2.7-0.8c0.4-0.5,0.9-1.3,1.3-2.2L130.2,11.9z"/>
	</g>
	<g id="XMLID_1505_">
		<path class="st0" d="M132.9,15.6v-0.7c1.8-0.1,2-0.3,2-2.5V3.7c0-2.1-0.2-2.2-1.9-2.4V0.6h10.6c0,0.5,0.1,2.2,0.2,3.5l-0.8,0.1
			c-0.3-1-0.5-1.6-0.9-2c-0.3-0.5-0.9-0.6-2.2-0.6h-1.5c-0.8,0-0.9,0-0.9,0.8v4.5c0.7,0,1.4-0.1,2.3-0.1c3.5,0,5.4,1.6,5.4,4.1
			c0,1.9-0.8,3-2.1,3.8c-1.1,0.6-2.9,0.9-4.7,0.9H132.9z M137.6,12.5c0,1.8,0.4,2.2,1.7,2.2c1.4,0,3.1-0.9,3.1-3.5
			c0-2.5-1.4-3.4-3.6-3.4c-0.4,0-0.8,0-1.2,0V12.5z"/>
	</g>
	<g id="XMLID_1504_">
		<path class="st0" d="M159.9,11.9c-0.1,0.9-0.6,3.1-0.8,3.8h-11.6v-0.7c2-0.2,2.2-0.3,2.2-2.3v-9c0-2-0.2-2.1-1.9-2.3V0.6h10.7
			c0,0.5,0.1,2.1,0.2,3.4l-0.8,0.1c-0.2-0.9-0.5-1.6-0.9-2c-0.4-0.4-1-0.6-2.4-0.6h-1.3c-0.8,0-0.9,0-0.9,0.8v5h1.8
			c2,0,2.2-0.1,2.5-1.7h0.8v4.6h-0.8c-0.3-1.7-0.5-1.8-2.5-1.8h-1.8v4.1c0,1.1,0.1,1.6,0.6,1.9c0.4,0.2,1.2,0.3,2.2,0.3
			c1.4,0,2.2-0.2,2.7-0.8c0.4-0.5,0.9-1.3,1.3-2.2L159.9,11.9z"/>
	</g>
</g>
</svg>
