<?xml version="1.0" encoding="utf-8"?>
<!-- Generator: Adobe Illustrator 19.2.1, SVG Export Plug-In . SVG Version: 6.00 Build 0)  -->
<!DOCTYPE svg PUBLIC "-//W3C//DTD SVG 1.1//EN" "http://www.w3.org/Graphics/SVG/1.1/DTD/svg11.dtd">
<svg version="1.1" id="Layer_1" xmlns="http://www.w3.org/2000/svg" xmlns:xlink="http://www.w3.org/1999/xlink" x="0px" y="0px"
	 viewBox="0 0 374.4 57.6" style="enable-background:new 0 0 374.4 57.6;" xml:space="preserve">
<style type="text/css">
	.st0{fill:#444344;}
	.st1{fill:url(#XMLID_2_);}
	.st2{fill:url(#XMLID_3_);}
	.st3{fill:url(#XMLID_4_);}
	.st4{fill:url(#XMLID_5_);}
	.st5{fill:url(#XMLID_6_);}
	.st6{fill:url(#XMLID_7_);}
	.st7{fill:none;stroke:#FFFFFF;stroke-linecap:round;stroke-miterlimit:10;}
</style>
<g class="XMLID_3695_">
	<g>
		<g class="XMLID_51_">
			<path class="XMLID_57_ st0" d="M28.5,0C10,0,0,15.1,0,29.4c0,16.1,11.8,28.2,27.5,28.2c16.7,0,28.3-12.1,28.3-29.5
				C55.8,9.8,41.8,0,28.5,0z M27.2,3.8c0.3,0,0.5,0,0.8,0c13.7,0.7,19.1,14.3,18.5,27.5C45.8,45,38.9,53.8,29,53.8
				c-0.3,0-0.5,0-0.8,0C16.5,53.2,8.7,41.6,9.4,26.1C10,15,15.7,3.8,27.2,3.8z"/>
			<path class="XMLID_56_ st0" d="M107.7,26.5c5-1.7,10.3-5.2,10.3-12.5c0-4-1.9-7.8-4.8-9.9c-2.8-2-6.8-2.9-12.8-2.9H80.1v3.3
				h0.4c4.7,0.5,5.1,1,5.1,7.4v33.7c0,6.1-0.3,6.9-5.4,7.4h-0.4v3.3h16.9c7,0,12.4-1.1,16.6-3.4c5.3-2.8,8.1-7.5,8.1-13
				C121.5,32.7,116.9,28.2,107.7,26.5z M98.9,4.7c6.7,0,10.7,3.8,10.7,10.3c0,6.8-3.8,10-11.8,10.2h-0.4v3.7h0.4
				c9.9,0.2,14.7,4.1,14.7,11.8c0,3.5-1.2,11.7-12.5,11.9c-0.2,0-5,0-6.4,0V4.7H98.9z"/>
			<path class="XMLID_55_ st0" d="M255.7,50.2c-2-2.1-3.6-4.2-6.7-8.6c-2.4-3.5-5.7-8.8-7.2-11.6c6.9-3.3,10.4-8.1,10.4-14.5
				c0-4.9-2.1-8.9-5.8-11.3c-3-2-7.1-2.9-13.5-2.9h-19.2v3.3h0.4c4.4,0.5,4.9,1.2,4.9,7.3v33.6c0,6.2-0.5,7-4.9,7.5h-0.4v3.3h18.4
				V53h-0.4c-4.4-0.5-5-1.3-5-7.5V8.9c0-0.5,0-0.9,0-1.3V4.8h4.6l0,0h0.6c3.5,0.1,11.5,1.3,11.5,11.9c0,4.5-1.4,7.7-4.4,10
				c-1.8,1.5-4.2,2.2-8.1,2.3h-0.4v3.6h0.4c2.6,0.3,3.7,1.3,4.8,3c0.5,0.9,1.1,1.8,1.6,2.7c2.1,3.5,4.5,7.4,6.8,10.7
				c3.8,5.5,7.3,7.4,13.8,7.8c0.9,0.1,2,0.1,3,0.1h0.3l0.4-2.9l-0.3-0.1C259.8,53.6,257.9,52.8,255.7,50.2z"/>
			<path class="XMLID_54_ st0" d="M374.2,54.1c-0.5-2.2-0.6-4.7-0.6-7.8v-7.2c0-1.2,0.1-8.3,0.1-8.3v-0.4h-13.5v3.4h0.4
				c4.8,0.6,5.1,1.4,5.1,6.5v7.1c0,3.5-1.1,4.4-2.4,5.1c-1.8,0.9-4.3,1.4-7.1,1.4c-11,0-22.8-8.1-22.8-25.7
				c0-14.8,8.3-24.4,21.1-24.4c9.3,0,14.2,3.9,15.9,12.7l0.1,0.4l2.7-0.7V2.5l-0.3-0.1c-0.4-0.1-0.9-0.2-1.5-0.3
				c-3.4-0.8-9-2.1-15-2.1c-8.6,0-16.6,2.6-22.3,7.2c-6.5,5.2-10,12.8-10,21.9c0,17,12.5,28.5,31.1,28.5c5.8,0,11.8-1.4,16.6-2.5
				c0.7-0.2,1.5-0.3,2.2-0.5l0.4-0.1L374.2,54.1z"/>
			<path class="XMLID_53_ st0" d="M185.2,44.2c-1,2.4-2.2,4.5-3.3,5.8c-1.8,2.1-4.1,2.7-10.2,2.7c-1,0-8.5,0-10.3,0V29.9
				l7.3,0.1l12,1.1v-6.8l-11.9,1.4l-7.4,0.1V4.9h10h0.6c4.4,0.1,6.2,0.7,7.2,2.2c1,1.6,1.7,3.2,2.2,5.4l0.1,0.4l3.5-0.6l-0.2-2.7
				c-0.2-3.2-0.4-6.5-0.4-8V1.2h-36.6v3.2h0.4c4.8,0.4,5.4,0.9,5.4,7.7v33.2c0,5.9-0.4,6.9-6,7.5h-0.4v3.3h39.1l0.1-0.3
				c0.6-2,1.7-7.1,2.5-10.9l0.1-0.4l-3.5-0.8L185.2,44.2z"/>
			<path class="XMLID_52_ st0" d="M282,4.5h0.4c4.5,0.5,5,1.3,5,7.5v33.4c0,6.2-0.5,7-5,7.5H282v3.3h18.9v-3.3h-0.4
				c-4.8-0.5-5.3-1.2-5.3-7.5V12c0-6.3,0.5-7.1,5.3-7.5h0.4V1.2H282V4.5z"/>
		</g>
	</g>
	<g>
		<g class="XMLID_44_">
			<linearGradient class="XMLID_222_" gradientUnits="userSpaceOnUse" x1="0" y1="28.8" x2="374.4001" y2="28.8">
				<stop  offset="0" style="stop-color:#50556B"/>
				<stop  offset="1" style="stop-color:#796266"/>
			</linearGradient>
			<path class="XMLID_50_ st1" d="M28.5,0C10,0,0,15.1,0,29.4c0,16.1,11.8,28.2,27.5,28.2c16.7,0,28.3-12.1,28.3-29.5
				C55.8,9.8,41.8,0,28.5,0z M27.2,3.8c0.3,0,0.5,0,0.8,0c13.7,0.7,19.1,14.3,18.5,27.5C45.8,45,38.9,53.8,29,53.8
				c-0.3,0-0.5,0-0.8,0C16.5,53.2,8.7,41.6,9.4,26.1C10,15,15.7,3.8,27.2,3.8z"/>
			<linearGradient class="XMLID_333_" gradientUnits="userSpaceOnUse" x1="0" y1="28.8" x2="374.4001" y2="28.8">
				<stop  offset="0" style="stop-color:#50556B"/>
				<stop  offset="1" style="stop-color:#796266"/>
			</linearGradient>
			<path class="XMLID_49_ st2" d="M107.7,26.5c5-1.7,10.3-5.2,10.3-12.5c0-4-1.9-7.8-4.8-9.9c-2.8-2-6.8-2.9-12.8-2.9H80.1v3.3
				h0.4c4.7,0.5,5.1,1,5.1,7.4v33.7c0,6.1-0.3,6.9-5.4,7.4h-0.4v3.3h16.9c7,0,12.4-1.1,16.6-3.4c5.3-2.8,8.1-7.5,8.1-13
				C121.5,32.7,116.9,28.2,107.7,26.5z M98.9,4.7c6.7,0,10.7,3.8,10.7,10.3c0,6.8-3.8,10-11.8,10.2h-0.4v3.7h0.4
				c9.9,0.2,14.7,4.1,14.7,11.8c0,3.5-1.2,11.7-12.5,11.9c-0.2,0-5,0-6.4,0V4.7H98.9z"/>
			<linearGradient class="XMLID_444_" gradientUnits="userSpaceOnUse" x1="0" y1="28.8" x2="374.4001" y2="28.8">
				<stop  offset="0" style="stop-color:#50556B"/>
				<stop  offset="1" style="stop-color:#796266"/>
			</linearGradient>
			<path class="XMLID_48_ st3" d="M255.7,50.2c-2-2.1-3.6-4.2-6.7-8.6c-2.4-3.5-5.7-8.8-7.2-11.6c6.9-3.3,10.4-8.1,10.4-14.5
				c0-4.9-2.1-8.9-5.8-11.3c-3-2-7.1-2.9-13.5-2.9h-19.2v3.3h0.4c4.4,0.5,4.9,1.2,4.9,7.3v33.6c0,6.2-0.5,7-4.9,7.5h-0.4v3.3h18.4
				V53h-0.4c-4.4-0.5-5-1.3-5-7.5V8.9c0-0.5,0-0.9,0-1.3V4.8h4.6l0,0h0.6c3.5,0.1,11.5,1.3,11.5,11.9c0,4.5-1.4,7.7-4.4,10
				c-1.8,1.5-4.2,2.2-8.1,2.3h-0.4v3.6h0.4c2.6,0.3,3.7,1.3,4.8,3c0.5,0.9,1.1,1.8,1.6,2.7c2.1,3.5,4.5,7.4,6.8,10.7
				c3.8,5.5,7.3,7.4,13.8,7.8c0.9,0.1,2,0.1,3,0.1h0.3l0.4-2.9l-0.3-0.1C259.8,53.6,257.9,52.8,255.7,50.2z"/>
			<linearGradient class="XMLID_555_" gradientUnits="userSpaceOnUse" x1="0" y1="28.8" x2="374.4001" y2="28.8">
				<stop  offset="0" style="stop-color:#50556B"/>
				<stop  offset="1" style="stop-color:#796266"/>
			</linearGradient>
			<path class="XMLID_47_ st4" d="M374.2,54.1c-0.5-2.2-0.6-4.7-0.6-7.8v-7.2c0-1.2,0.1-8.3,0.1-8.3v-0.4h-13.5v3.4h0.4
				c4.8,0.6,5.1,1.4,5.1,6.5v7.1c0,3.5-1.1,4.4-2.4,5.1c-1.8,0.9-4.3,1.4-7.1,1.4c-11,0-22.8-8.1-22.8-25.7
				c0-14.8,8.3-24.4,21.1-24.4c9.3,0,14.2,3.9,15.9,12.7l0.1,0.4l2.7-0.7V2.5l-0.3-0.1c-0.4-0.1-0.9-0.2-1.5-0.3
				c-3.4-0.8-9-2.1-15-2.1c-8.6,0-16.6,2.6-22.3,7.2c-6.5,5.2-10,12.8-10,21.9c0,17,12.5,28.5,31.1,28.5c5.8,0,11.8-1.4,16.6-2.5
				c0.7-0.2,1.5-0.3,2.2-0.5l0.4-0.1L374.2,54.1z"/>
			<linearGradient class="XMLID_666_" gradientUnits="userSpaceOnUse" x1="0" y1="28.8" x2="374.4001" y2="28.8">
				<stop  offset="0" style="stop-color:#50556B"/>
				<stop  offset="1" style="stop-color:#796266"/>
			</linearGradient>
			<path class="XMLID_46_ st5" d="M185.2,44.2c-1,2.4-2.2,4.5-3.3,5.8c-1.8,2.1-4.1,2.7-10.2,2.7c-1,0-8.5,0-10.3,0V29.9
				l7.3,0.1l12,1.1v-6.8l-11.9,1.4l-7.4,0.1V4.9h10h0.6c4.4,0.1,6.2,0.7,7.2,2.2c1,1.6,1.7,3.2,2.2,5.4l0.1,0.4l3.5-0.6l-0.2-2.7
				c-0.2-3.2-0.4-6.5-0.4-8V1.2h-36.6v3.2h0.4c4.8,0.4,5.4,0.9,5.4,7.7v33.2c0,5.9-0.4,6.9-6,7.5h-0.4v3.3h39.1l0.1-0.3
				c0.6-2,1.7-7.1,2.5-10.9l0.1-0.4l-3.5-0.8L185.2,44.2z"/>
			<linearGradient class="XMLID_777_" gradientUnits="userSpaceOnUse" x1="0" y1="28.8" x2="374.4001" y2="28.8">
				<stop  offset="0" style="stop-color:#50556B"/>
				<stop  offset="1" style="stop-color:#796266"/>
			</linearGradient>
			<path class="XMLID_45_ st6" d="M282,4.5h0.4c4.5,0.5,5,1.3,5,7.5v33.4c0,6.2-0.5,7-5,7.5H282v3.3h18.9v-3.3h-0.4
				c-4.8-0.5-5.3-1.2-5.3-7.5V12c0-6.3,0.5-7.1,5.3-7.5h0.4V1.2H282V4.5z"/>
		</g>
	</g>
	<g>
		<g class="XMLID_37_">
			<path class="XMLID_43_ st7" d="M28.5,0C10,0,0,15.1,0,29.4c0,16.1,11.8,28.2,27.5,28.2c16.7,0,28.3-12.1,28.3-29.5
				C55.8,9.8,41.8,0,28.5,0z M27.2,3.8c0.3,0,0.5,0,0.8,0c13.7,0.7,19.1,14.3,18.5,27.5C45.8,45,38.9,53.8,29,53.8
				c-0.3,0-0.5,0-0.8,0C16.5,53.2,8.7,41.6,9.4,26.1C10,15,15.7,3.8,27.2,3.8z"/>
			<path class="XMLID_42_ st7" d="M107.7,26.5c5-1.7,10.3-5.2,10.3-12.5c0-4-1.9-7.8-4.8-9.9c-2.8-2-6.8-2.9-12.8-2.9H80.1v3.3
				h0.4c4.7,0.5,5.1,1,5.1,7.4v33.7c0,6.1-0.3,6.9-5.4,7.4h-0.4v3.3h16.9c7,0,12.4-1.1,16.6-3.4c5.3-2.8,8.1-7.5,8.1-13
				C121.5,32.7,116.9,28.2,107.7,26.5z M98.9,4.7c6.7,0,10.7,3.8,10.7,10.3c0,6.8-3.8,10-11.8,10.2h-0.4v3.7h0.4
				c9.9,0.2,14.7,4.1,14.7,11.8c0,3.5-1.2,11.7-12.5,11.9c-0.2,0-5,0-6.4,0V4.7H98.9z"/>
			<path class="XMLID_41_ st7" d="M255.7,50.2c-2-2.1-3.6-4.2-6.7-8.6c-2.4-3.5-5.7-8.8-7.2-11.6c6.9-3.3,10.4-8.1,10.4-14.5
				c0-4.9-2.1-8.9-5.8-11.3c-3-2-7.1-2.9-13.5-2.9h-19.2v3.3h0.4c4.4,0.5,4.9,1.2,4.9,7.3v33.6c0,6.2-0.5,7-4.9,7.5h-0.4v3.3h18.4
				V53h-0.4c-4.4-0.5-5-1.3-5-7.5V8.9c0-0.5,0-0.9,0-1.3V4.8h4.6l0,0h0.6c3.5,0.1,11.5,1.3,11.5,11.9c0,4.5-1.4,7.7-4.4,10
				c-1.8,1.5-4.2,2.2-8.1,2.3h-0.4v3.6h0.4c2.6,0.3,3.7,1.3,4.8,3c0.5,0.9,1.1,1.8,1.6,2.7c2.1,3.5,4.5,7.4,6.8,10.7
				c3.8,5.5,7.3,7.4,13.8,7.8c0.9,0.1,2,0.1,3,0.1h0.3l0.4-2.9l-0.3-0.1C259.8,53.6,257.9,52.8,255.7,50.2z"/>
			<path class="XMLID_40_ st7" d="M374.2,54.1c-0.5-2.2-0.6-4.7-0.6-7.8v-7.2c0-1.2,0.1-8.3,0.1-8.3v-0.4h-13.5v3.4h0.4
				c4.8,0.6,5.1,1.4,5.1,6.5v7.1c0,3.5-1.1,4.4-2.4,5.1c-1.8,0.9-4.3,1.4-7.1,1.4c-11,0-22.8-8.1-22.8-25.7
				c0-14.8,8.3-24.4,21.1-24.4c9.3,0,14.2,3.9,15.9,12.7l0.1,0.4l2.7-0.7V2.5l-0.3-0.1c-0.4-0.1-0.9-0.2-1.5-0.3
				c-3.4-0.8-9-2.1-15-2.1c-8.6,0-16.6,2.6-22.3,7.2c-6.5,5.2-10,12.8-10,21.9c0,17,12.5,28.5,31.1,28.5c5.8,0,11.8-1.4,16.6-2.5
				c0.7-0.2,1.5-0.3,2.2-0.5l0.4-0.1L374.2,54.1z"/>
			<path class="XMLID_39_ st7" d="M185.2,44.2c-1,2.4-2.2,4.5-3.3,5.8c-1.8,2.1-4.1,2.7-10.2,2.7c-1,0-8.5,0-10.3,0V29.9
				l7.3,0.1l12,1.1v-6.8l-11.9,1.4l-7.4,0.1V4.9h10h0.6c4.4,0.1,6.2,0.7,7.2,2.2c1,1.6,1.7,3.2,2.2,5.4l0.1,0.4l3.5-0.6l-0.2-2.7
				c-0.2-3.2-0.4-6.5-0.4-8V1.2h-36.6v3.2h0.4c4.8,0.4,5.4,0.9,5.4,7.7v33.2c0,5.9-0.4,6.9-6,7.5h-0.4v3.3h39.1l0.1-0.3
				c0.6-2,1.7-7.1,2.5-10.9l0.1-0.4l-3.5-0.8L185.2,44.2z"/>
			<path class="XMLID_38_ st7" d="M282,4.5h0.4c4.5,0.5,5,1.3,5,7.5v33.4c0,6.2-0.5,7-5,7.5H282v3.3h18.9v-3.3h-0.4
				c-4.8-0.5-5.3-1.2-5.3-7.5V12c0-6.3,0.5-7.1,5.3-7.5h0.4V1.2H282V4.5z"/>
		</g>
	</g>
</g>
</svg>
