<?xml version="1.0" encoding="utf-8"?>
<!-- Generator: Adobe Illustrator 19.2.1, SVG Export Plug-In . SVG Version: 6.00 Build 0)  -->
<!DOCTYPE svg PUBLIC "-//W3C//DTD SVG 1.1//EN" "http://www.w3.org/Graphics/SVG/1.1/DTD/svg11.dtd">
<svg version="1.1" id="pattern" xmlns="http://www.w3.org/2000/svg" xmlns:xlink="http://www.w3.org/1999/xlink" x="0px" y="0px"
	 viewBox="0 0 559 559" style="enable-background:new 0 0 559 559;" xml:space="preserve">
<style type="text/css">
	.st0{fill:none;stroke:#E1E0E4;stroke-width:1.524;}
	.st1{fill:none;stroke:#E1E0E4;stroke-width:2.032;}
	.st2{fill:none;stroke:#E1E0E4;stroke-width:0.762;}
	.st3{fill:none;stroke:#E1E0E4;stroke-width:0.254;}
	.st4{fill:none;stroke:#E1E0E4;stroke-width:0.508;}
	.st5{fill:none;stroke:#E1E0E4;stroke-width:1.016;}
	.st6{fill:none;stroke:#E1E0E4;stroke-width:2.54;}
	.st7{fill:none;stroke:#E1E0E4;stroke-width:1.27;}
</style>
<g>
	<path class="st0" d="M394.4,313.8c0,0-7.5,3.8-7.1,7.1s71.1,64.5,62.8,103c-4.7,21.9-38.6,31.7-46.2,21.3"/>
	<path class="st1" d="M413.3,440.6c0,0,11.4-7,14.2-20.1s-2.9-29.4-21.3-24.9s-25.7,12.6-29.6,22.5c-13.8,35,39.4,57.2,62.8,49.7"/>
	<path class="st0" d="M324.5,379c1.2,2.9-1.7,80.7-3.6,93.6s-9.5,38.4-34.3,36.7s-37.7-17.7-33.2-29.6s5.4-2.4,8.3,1.2
		s13,5.4,18.9,2.4s15.5-9.6,15.4-15.4s-4.7-11.8-4.7-11.8S280,437,257,441.8s-25.6,19.2-27.2,24.9s-5.1,26.2,13,46.2"/>
	<path class="st1" d="M142.1,426.4c0,0,29-11.6,15.4-35.5c-11.6-20.5-42.3-21.5-58-10.7s-21.9,22.4-16.6,55.7"/>
	<path class="st0" d="M239.2,380.2c-4,5.1-25.3,25.6-35.5,34.3s-36.4,34.3-52.1,35.5"/>
	<path class="st2" d="M253.4,408.6c-4.9,0.7-21.5,21-26.1,24.9s-66.4,65.4-106.6,39.1"/>
	<path class="st3" d="M258.2,411c-4.9,0.7-21.5,21-26.1,24.9s-59.3,59.8-104.2,42.6"/>
	<path class="st2" d="M312.7,528.2c0,0,42.1-11.8,39.1-81.7c-2-45.5-5.7-50.4,1.2-55.7"/>
	<path class="st3" d="M318.6,528.2c0,0,42.1-11.8,39.1-81.7c-2-45.5-5.7-50.4,1.2-55.7"/>
	<path class="st3" d="M411,305.6c0,0,58.4,65.1,61.6,75.8"/>
	<path class="st2" d="M406.2,305.6c0,0,56.3,66,61.6,75.8c7.3,13.5,20.3,32.1,5.9,56.8"/>
	<path class="st3" d="M279.5,0"/>
	<path class="st4" d="M279.5,559C125.1,559,0,433.9,0,279.5S125.1,0,279.5,0"/>
	<circle class="st5" cx="279.5" cy="279.5" r="274.8"/>
	<circle class="st1" cx="279.5" cy="279.5" r="253.4"/>
	<path class="st1" d="M223.8,175.3c0,0,29.2,24,50.9,21.3s20.1-5.9,20.1-5.9"/>
	<path class="st6" d="M358.8,169.4"/>
	<path class="st1" d="M356.5,215.5c-1.1,7.7-11.1,10.4-16.6,0s-21.3-40.4-18.9-45s72.3-74.6,101.8-69.9c21.5,3.5,25,17,23.5,29.1
		 M438.4,146c-2.7-9.3-11.3-29.2-34.5-16.9c-6.9,3.6-9.4,19.3-5.9,27.2s9.6,26.9,29.6,27.2s38.6-13.7,41.5-29.6s3.7-26.7,1.2-35.5"
		/>
	<path class="st0" d="M270,152.8c0,0,7.2-4.4,17.8,0s15.4,23.7,15.4,23.7"/>
	<path class="st2" d="M427.5,74.6c0,0-24-5.2-47.4,10.7s-74.6,59.2-74.6,59.2s-14.1-17.2-27.2-16.6c-13.1,0.6-24.2,7.5-27.2,15.4
		s2.2,26.7,24.9,32s15,9.5,11.8,11.8"/>
	<path class="st0" d="M364.8,208.4c0,0-23.4-25-10.7-45"/>
	<path class="st5" d="M136.2,411c0,0,3-26.9-20.1-24.9c-22,1.9-28.2,40.8,13,56.8"/>
	<circle class="st6" cx="279.5" cy="279.5" r="15.4"/>
	<circle class="st4" cx="279.5" cy="279.5" r="3.6"/>
	<path class="st1" d="M249.9,209.6c6.7-1.8,24.5,8.3,29.6,8.3s19.9-11.1,26.1-8.3s10.2,19.4,13,23.7s22.8,7.2,26.1,13
		s-5.2,22.4-5.9,28.4s10,20.9,8.3,26.1s-19.3,12-23.7,15.4s-6.1,23.1-13,26.1s-21.7-9.5-28.4-9.5s-20.2,10.7-27.2,9.5
		s-14.1-23.5-17.8-27.2s-18-6.5-20.1-11.8s7.1-20.8,7.1-29.6s-12.6-16-10.7-26.1s19.2-7.9,23.7-11.8S243.2,211.4,249.9,209.6z"/>
	<path class="st3" d="M248.7,206.5c7.1-1.8,25.9,8.7,31.3,8.7s21.1-11.6,27.6-8.7s10.8,20.3,13.8,24.8s24.2,7.5,27.6,13.6
		s-5.5,23.4-6.3,29.7s10.6,21.9,8.8,27.3s-20.4,12.6-25.1,16.1s-6.5,24.2-13.8,27.3s-23-9.9-30.1-9.9s-21.4,11.2-28.8,9.9
		s-14.9-24.6-18.8-28.5s-19-6.8-21.3-12.4s7.5-21.8,7.5-31s-13.3-16.7-11.3-27.3s20.3-8.3,25.1-12.4S241.6,208.4,248.7,206.5z"/>
	<path class="st1" d="M191.9,376.6c0,0-21.2-32.7,7.1-43.8s45.3,49,55.7,68.7c10.4,19.7,54.8,32.3,53.3,0c-1-22.3-25-24.5-29.6-24.9
		"/>
	<path class="st0" d="M275.9,403.9c0,0-46.5-67.7,29.6-41.5c51.2,17.7,78.1,26,85.3,9.5s-17.8-30.8-17.8-30.8"/>
	<path class="st1" d="M343.5,352.9c0,0-18.9-18.4,19-30.8s79.7-40.4,65.1-62.8s-40.7,4.7-45,13"/>
	<path class="st0" d="M393.2,275.9c0,0,17.3-16.9,21.3-7.1s-24.9,23.7-24.9,23.7"/>
	<path class="st1" d="M354.1,358.8c0,0,26.4-3.1,20.1,10.7"/>
	<path class="st0" d="M363.6,277.1c0,0,10.9-40.5,18.9-43.8s116.8-12.1,124.4,22.5s-13.8,47.3-21.3,45s-1.9-7.9,0-11.8
		s8.4-32.5-14.2-28.4c-10.4,1.9-12.7,20.4-11.8,30.8"/>
	<path class="st1" d="M453.6,270c0,0-20.1,44.9,13,52.1s60.7-16.4,64-36.7"/>
	<path class="st2" d="M528.2,249.9c0,0-9.7-42.3-71.1-42.6s-65.4,1.6-67.5-2.4s2.8-14.2-1.2-26.1s-11.2-17.8-19-18.9"/>
	<path class="st2" d="M196.6,344.6c0,0,28.2,44.9,0,45c-25.8,0.1-26.1-33.1-32-41.5c-11.2-15.8-106.3,0-126.7-37.9"/>
	<path class="st3" d="M194.2,396.7c-25.9,0.1-26.1-33.1-32-41.5c-11.2-15.8-106.3,0-126.7-37.9"/>
	<path class="st0" d="M178.8,322.1c0,0-113.2,5.4-132.6-35.5c-16.8-35.2,20.7-36,26.1-35.5"/>
	<path class="st1" d="M34.3,242.8c13.4-9.1,74-37.5,79.3,11.8s-47.5,38.6-47.4,23.7"/>
	<path class="st0" d="M177.6,319.8c0,0,39.6-50,7.1-60.4c-14.9-4.7-34.6,10.1-36.7,16.6"/>
	<path class="st2" d="M129.1,273.6c0,0,17.2-16.6,18.9-22.5s-83.2-69.9-68.7-111.3"/>
	<path class="st3" d="M142.1,252.3c1.7-5.9-75.2-68.1-67.5-100.7"/>
	<path class="st0" d="M220.3,169.4c9-0.2,9.4-46,9.5-62.8s-0.5-72,54.5-65.1S321,93.1,298.4,90"/>
	<path class="st1" d="M294.9,78.2c-9.4-15.7-37.7-14.1-35.5,8.3s23.9,24.2,32,24.9s50.1-10.2,42.6-41.5S310.5,35,304.4,30.8"/>
	<path class="st0" d="M175.3,236.9c0,0-82.7-69.9-68.7-99.5s37.6-32.6,43.8-21.3s3.3,23.2-1.2,26.1"/>
	<path class="st2" d="M191.9,230.9c0,0,25.9-9.6,28.4-17.8s-0.2-13.2-3.6-13s-8.4,11.3-28.4,10.7s-35.2-11.7-27.2-27.2
		s29.7-18.9,43.8-18.9s3.4-37.2,3.6-60.4s10.2-61.7,27.2-67.5"/>
	<path class="st1" d="M130.3,84.1c0,0,57.5-4.1,53.3,40.3s-54.5,41-56.8,22.5"/>
	<path class="st1" d="M181.2,270c-1.9,5.6-5.4,32.1-26.1,33.2s-26.1-9.5-26.1-9.5"/>
	<path class="st1" d="M208.4,184.8c0,0-12.6-7.1-21.3-2.4"/>
	<path class="st1" d="M78.2,258.2c0,0,4,12.8,17.8,4.7"/>
	<path class="st0" d="M416.9,139.8c0,0-6.1,28.7,16.6,30.8"/>
	<path class="st7" d="M366,187.1c-5.7-19,16.4-16.7,15.4,2.4"/>
</g>
</svg>
