<?xml version="1.0" encoding="utf-8"?>
<!-- Generator: Adobe Illustrator 20.1.0, SVG Export Plug-In . SVG Version: 6.00 Build 0)  -->
<svg version="1.1" id="Layer_1" xmlns="http://www.w3.org/2000/svg" xmlns:xlink="http://www.w3.org/1999/xlink" x="0px" y="0px"
	 width="585px" height="585px" viewBox="0 0 585 585" style="enable-background:new 0 0 585 585;" xml:space="preserve">
<style type="text/css">
	.st0{fill:none;stroke:#E1E0E4;stroke-width:2.54;}
	.st1{fill:none;stroke:#E1E0E4;stroke-width:2.032;}
	.st2{fill:none;stroke:#E1E0E4;stroke-width:1.27;}
	.st3{fill:none;stroke:#E1E0E4;stroke-width:1.524;}
	.st4{fill:none;stroke:#E1E0E4;stroke-width:1.016;}
	.st5{fill:none;stroke:#E1E0E4;stroke-width:0.762;}
	.st6{fill:none;stroke:#E1E0E4;stroke-width:0.508;}
	.st7{fill:none;stroke:#E1E0E4;stroke-width:0.254;}
	.st8{fill:none;}
	.st9{fill:none;stroke:#E1E0E4;stroke-width:0.203;}
	.st10{fill:none;stroke:#E1E0E4;stroke-width:0.127;}
</style>
<path class="st0" d="M292.9,264.6c4.4,0,7.5,2.3,11.1,4.1c3.1,1.5,7.2,2.3,9.5,4.9c2.6,2.8,3.3,6.7,4.6,10.3c1,3.1,3.1,5.7,3.1,9
	c0,4.1-2.3,7.5-4.1,11.1c-1.8,3.9-3.1,8-6.4,10.8c-2.3,2.1-5.9,2.3-8.8,3.3c-3.1,1.3-5.7,3.1-9,3.1c-4.4,0-7.5-2.3-11.1-4.1
	c-3.3-1.8-8-2.8-10.3-5.9c-2.6-2.8-2.6-6.7-3.9-10.3c-0.8-2.6-3.1-5.2-3.1-8c0-4.6,3.1-9.3,5.2-13.1c1.5-2.8,1.5-5.4,3.9-7.5
	c2.8-2.6,6.4-3.3,10.3-4.6C286.7,266.6,289.8,264.6,292.9,264.6z"/>
<path class="st1" d="M292.9,255.5c5.9,0,9.8,2.8,14.7,5.4c4.1,2.1,9.3,3.1,12.4,6.4c3.6,3.6,4.4,9,6.2,13.7
	c1.5,4.1,4.1,7.5,4.1,12.1c0,5.7-3.1,10-5.4,14.7c-2.3,5.2-3.9,10.6-8.2,14.2c-3.1,2.6-7.7,3.1-11.8,4.4c-4.1,1.5-7.5,4.1-12.1,4.1
	c-5.9,0-9.8-2.8-14.7-5.4c-4.6-2.3-10.3-3.9-13.7-7.7c-3.3-3.9-3.6-8.8-5.2-13.7c-1-3.3-4.1-7-4.1-10.8c0-6.2,4.1-12.4,6.7-17.5
	c2.1-3.9,2.1-7.2,5.2-10c3.9-3.6,8.5-4.4,13.7-6.2C284.6,258.1,288.8,255.5,292.9,255.5z"/>
<path class="st2" d="M304.5,250.4c6.7,1.8,10.3,6.4,15.2,10.6c4.1,3.6,9.8,6.4,12.4,11.1c2.8,5.2,2.3,11.6,2.8,17.5
	c0.5,5.2,2.3,9.8,0.8,14.9c-1.8,6.4-6.7,10.3-10.6,15.2c-4.4,5.2-7.7,10.8-13.9,13.7c-4.4,2.1-9.8,1-14.7,1.5
	c-5.2,0.5-9.5,2.3-14.9,0.8c-6.7-1.8-10.3-6.2-15.2-10.6c-4.6-3.9-10.6-7.5-13.1-12.9s-1.3-11.1-1.5-17.3c-0.3-4.1-2.6-9-1.3-13.4
	c1.8-7.2,8.2-12.6,12.9-17.8c3.3-3.6,4.6-7.5,9-9.8c5.4-2.8,11.1-2.3,17.3-2.8C294.2,250.9,299.6,249.1,304.5,250.4z"/>
<path class="st3" d="M305.3,242.1c8,2.1,12.1,7.2,18,12.1c4.9,4.1,11.6,7.2,14.7,12.9c3.3,6.2,3.1,13.4,3.9,20.6
	c0.5,5.9,2.8,11.6,1.3,17.5c-1.8,7.5-7.7,12.4-12.1,18c-4.9,6.2-9,13.1-16,16.5c-5.2,2.3-11.6,1.5-17.3,2.1
	c-5.9,0.8-11.3,2.8-17.5,1.3c-8-2.1-12.1-7.2-18-12.1c-5.4-4.6-12.6-8.8-15.7-14.9c-3.3-6.4-1.8-12.9-2.1-20.4
	c-0.3-4.9-3.1-10.8-1.8-15.7c2.1-8.5,9.5-15.2,14.9-21.1c3.9-4.4,5.2-8.8,10.3-11.6c6.4-3.6,12.9-3.1,20.4-3.6
	C293.1,242.9,299.6,240.6,305.3,242.1z"/>
<path class="st4" d="M256.8,244.2c7.7-5.7,15.7-5.7,24.5-7.2c7.2-1.3,15.2-5.2,22.4-3.9c8.2,1.5,14.7,7.2,21.6,11.8
	c5.9,3.9,12.6,5.9,17,11.8c5.4,7.2,5.7,16.2,7.2,24.5c2.1,9.3,5.2,17.8,2.8,26.8c-1.5,6.4-7.2,11.6-11.1,17.3
	c-3.9,5.9-5.9,12.4-11.8,17c-7.7,5.7-15.7,5.7-24.5,7.2c-8.2,1.5-17.3,5.2-25.5,3.3s-13.1-8-20.1-13.1c-4.6-3.6-12.1-5.2-15.7-10
	c-6.2-8.2-6.7-19.8-8.2-29.4c-1-7-4.1-11.3-2.8-18.3c1.5-8.5,7-13.9,11.8-21.1C248.8,255.8,251.4,248.3,256.8,244.2z"/>
<path class="st5" d="M292.9,220.8c11.3,0,18.8,5.7,28.3,10.3c7.7,3.9,18,5.9,24,12.1c6.7,7,8.8,17.3,12.1,26.5
	c2.8,7.7,7.7,14.4,7.7,23.2c0,10.8-6.2,19.3-10.3,28.3c-4.6,10-7.7,20.6-16.2,27.6c-6.2,4.9-15.2,5.9-22.7,8.8
	c-8,3.1-14.2,7.7-23.2,7.7c-11.3,0-18.8-5.7-28.3-10.3c-8.8-4.4-20.1-7.5-26.3-14.7c-6.4-7.5-6.7-16.7-9.8-26.5
	c-2.1-6.7-7.7-13.4-7.7-20.6c0-12.1,7.7-23.7,12.9-33.5c3.9-7.2,4.1-13.7,10-19.3c7.5-7,16.2-8.2,26-11.6
	C277.2,225.9,284.9,220.8,292.9,220.8z"/>
<path class="st5" d="M283.9,212.5c12.6-1.3,21.9,4.1,33,8c9.3,3.3,21.1,4.4,28.3,10.8c8.5,7.2,11.8,18,16.7,28.1
	c4.1,8.2,10.3,15.2,11.6,25c1.3,11.8-4.6,22.2-8.2,33c-3.9,11.8-6.2,23.7-14.7,32.5c-6.2,6.2-16.2,8.2-24.2,12.4
	c-8.5,4.4-14.9,10.3-25,11.3c-12.9,1.3-21.6-4.1-33-8c-10.3-3.9-23.2-5.9-31.4-13.4c-8.2-7.7-9.8-17.8-14.2-28.3
	c-3.1-7.2-10.3-13.9-11.1-22.2c-1.5-13.4,5.7-27.3,10.3-38.9c3.3-8.8,2.8-15.7,9-22.7c7.5-8.5,17.3-11.3,27.8-16.2
	C266.6,220.2,274.6,213.3,283.9,212.5z"/>
<path class="st6" d="M283.4,202.7c14.2-1.5,24.2,4.6,36.8,9c10.3,3.6,23.4,4.9,31.7,12.1c9.3,8,13.1,20.4,18.5,31.4
	c4.6,9.3,11.6,17,12.9,28.1c1.5,13.4-5.2,25-9,36.8c-4.4,13.1-6.7,26.8-16.5,36.6c-7,7-18,9.3-27,13.9c-9.5,4.9-16.7,11.6-28.1,12.9
	c-14.2,1.5-24.2-4.4-36.8-9c-11.6-4.1-26-6.4-35-14.9s-10.8-20.1-15.7-31.7c-3.3-8-11.6-15.7-12.4-24.7
	c-1.5-14.9,6.4-30.4,11.6-43.5c3.9-9.8,3.3-17.5,10-25.5c8.2-9.5,19.3-12.6,30.9-18C264,211.5,273.1,204,283.4,202.7z"/>
<path class="st6" d="M292.6,192.2c15.7,0,26.3,8,39.4,14.4c10.8,5.4,25.2,8.2,33.5,17c9.3,9.8,12.1,24,16.7,36.8
	c3.9,10.8,10.8,20.1,10.8,32.2c0,14.9-8.5,26.8-14.4,39.4c-6.4,13.9-10.6,28.6-22.4,38.1c-8.5,7-21.1,8.2-31.4,12.1
	c-11.1,4.1-19.8,10.8-32.2,10.8c-15.7,0-26-7.7-39.4-14.4c-12.4-5.9-27.8-10.3-36.6-20.6c-9-10.6-9.5-23.2-13.7-36.8
	c-2.8-9.3-10.8-18.5-10.8-28.6c0-16.7,10.8-32.7,18-46.6c5.4-10.3,5.7-19.1,13.9-26.8c10.3-9.5,22.7-11.6,36.3-16.2
	C270.5,199.6,281.3,192.2,292.6,192.2z"/>
<path class="st6" d="M292.6,178.8c17.8,0,29.6,9,44.8,16.2c12.4,5.9,28.6,9.3,37.9,19.3c10.6,11.1,13.7,27,19.1,41.7
	c4.4,12.1,12.1,22.9,12.1,36.6c0,17-9.8,30.4-16.2,44.8c-7.2,16-12.1,32.5-25.5,43.3c-9.5,7.7-24,9.3-35.5,13.7
	c-12.4,4.6-22.4,12.1-36.6,12.1c-18,0-29.6-8.8-44.8-16.2c-13.9-6.7-31.4-11.6-41.5-23.2c-10.3-11.8-10.8-26.3-15.5-41.7
	c-3.1-10.6-12.1-21.1-12.1-32.5c0-19.1,12.1-37.1,20.4-52.8c5.9-11.6,6.4-21.6,15.7-30.4c11.6-10.8,25.8-13.1,41.2-18.5
	C267.6,187,279.7,178.8,292.6,178.8z"/>
<path class="st6" d="M292.4,162.3c20.4,0,34,4.9,51.3,13.1c14.2,7,31.9,13.1,42.5,24.2c12.1,12.9,20.1,27.8,26.3,44.6
	c5.2,13.9,10,32.5,10,48.2c0,19.3-3.6,34.8-11.1,51.3c-8.2,18-21.4,37.1-36.6,49.5c-10.8,9-24,14.4-37.6,19.3
	c-14.2,5.4-29.1,10-45.1,10c-20.6,0-34-10-51.3-18.5c-16-7.7-36.1-13.4-47.7-26.5c-11.8-13.7-15.2-26.3-20.4-44
	c-3.6-11.8-11.1-27.8-11.1-41c0-21.6,5.9-42.2,15.2-60.3c7-13.1,15.5-24.7,26.3-35c13.1-12.4,28.3-19.8,45.9-26
	C262.7,166.7,277.7,162.3,292.4,162.3z"/>
<path class="st7" d="M292.4,135.8c24.5,0,41,12.4,61.6,22.4c17,8.2,39.2,12.9,52.3,26.5c14.7,15.5,18.8,37.1,26.3,57.4
	c6.2,16.7,16.7,31.4,16.7,50.5c0,23.2-9.8,43.3-18.8,63.1c-10,21.9-20.6,40.7-38.9,55.6c-13.1,10.8-22.7,17-38.9,23.2
	c-17.3,6.4-40.7,14.7-60,14.7c-24.7,0-41.2-12.9-62.1-23.2c-19.1-9.3-39.9-16.7-53.6-32.7c-14.2-16.5-19.8-32.5-26.3-53.6
	c-4.4-14.4-14.7-31.4-14.7-47.4c0-26,13.9-53.1,25.2-74.7c8.2-16,11.6-27.8,24.5-39.9c16-14.9,35.5-18,56.7-25.2
	C258.1,147.1,274.6,135.8,292.4,135.8z"/>
<path class="st7" d="M292.9,112.1c28.3,0,47.1,14.2,71.1,25.8c19.6,9.5,45.3,14.9,60.3,30.7c16.7,17.8,21.6,43,30.1,66.2
	c7.2,19.3,19.3,36.3,19.3,58.2c0,26.8-11.1,51.3-21.6,73.9c-11.6,25.2-23.4,48.4-44.6,65.7c-15.2,12.4-37.9,14.7-56.7,21.6
	c-19.8,7.5-35.8,19.3-58.2,19.3c-28.6,0-47.1-14.2-71.1-25.8c-22.2-10.8-50-18.5-65.9-37.1c-16.2-18.8-17-42-24.5-66.5
	c-4.9-16.5-19.3-33.5-19.3-51.8c0-30.1,19.3-59,32.2-84c9.5-18.3,10.3-34.3,25.2-48.2c18.3-17.3,41-20.9,65.2-29.4
	C253.2,125.2,272.5,112.1,292.9,112.1z"/>
<path class="st8" d="M292.9,85c32.7,0,54.1,16.2,81.7,29.6c22.7,11.1,52,17,69.3,35c19.3,20.4,25,49.5,34.8,76.2
	c8.2,22.4,22.2,41.7,22.2,66.7c0,30.9-17.8,55.4-29.6,81.7c-13.1,28.9-21.9,59-46.4,79.1c-17.5,14.4-43.5,16.7-65.2,25
	c-22.7,8.5-41.2,22.2-66.7,22.2c-32.7,0-54.1-16.2-81.7-29.6c-25.5-12.4-57.4-21.4-75.7-42.5c-18.8-21.6-19.6-48.2-28.1-76.2
	c-5.7-19.1-22.2-38.4-22.2-59.5c0-34.5,22.2-67.7,37.1-96.6c11.1-21.1,11.6-39.4,28.9-55.4c21.1-19.3,46.9-23.7,75-33.2
	C247.3,100.2,269.4,85,292.9,85z"/>
<path class="st9" d="M292.9,85c32.7,0,54.1,16.2,81.7,29.6c22.7,11.1,52,17,69.3,35c19.3,20.4,25,49.5,34.8,76.2
	c8.2,22.4,22.2,41.7,22.2,66.7c0,30.9-17.8,55.4-29.6,81.7c-13.1,28.9-21.9,59-46.4,79.1c-17.5,14.4-43.5,16.7-65.2,25
	c-22.7,8.5-41.2,22.2-66.7,22.2c-32.7,0-54.1-16.2-81.7-29.6c-25.5-12.4-57.4-21.4-75.7-42.5c-18.8-21.6-19.6-48.2-28.1-76.2
	c-5.7-19.1-22.2-38.4-22.2-59.5c0-34.5,22.2-67.7,37.1-96.6c11.1-21.1,11.6-39.4,28.9-55.4c21.1-19.3,46.9-23.7,75-33.2
	C247.3,100.2,269.4,85,292.9,85z"/>
<path class="st9" d="M292.9,48.7c38.4,0,63.6,19.3,96.1,35c26.5,12.9,61.3,20.1,81.4,41.2c22.7,24,29.4,58,41,89.6
	c9.5,26.3,26.3,48.9,26.3,78.6c0,36.3-20.9,65.2-35,96.1c-15.5,34-25.8,69.6-54.4,93c-20.6,16.7-51.3,19.8-76.5,29.4
	c-26.8,10-48.4,26.3-78.6,26.3c-38.6,0-63.6-19.1-96.1-35c-29.9-14.7-67.7-25-89.1-50c-21.9-25.5-23.2-56.7-33-89.6
	c-6.7-22.4-26.3-45.1-26.3-69.8c0-40.7,26-79.9,43.5-113.6c12.9-24.7,13.7-46.4,34-65.2c25-23.2,55.4-28.3,88.1-39.7
	C239.3,66.2,265.3,48.7,292.9,48.7z"/>
<path class="st10" d="M292.4,19.1c42.8,0,78.6,10.6,114.6,28.1c29.6,14.4,61.3,33.5,83.7,57.2c25.5,26.8,43.5,57.4,56.7,92.7
	c10.8,29.4,18.3,62.3,18.3,95.3c0,40.4-39.4,72.4-55.1,106.9c-17.5,38.1-12.9,78.3-44.8,104.6c-22.9,18.8-57.2,22.2-85.5,32.7
	c-29.9,11.3-59.2,17.8-93.2,17.8c-43,0-65.7-9.8-102-27.6c-33.5-16.5-75.7-28.1-99.7-55.9c-24.5-28.1-36.6-53.6-47.7-90.4
	c-7.5-25-18.3-60-18.3-87.6c0-45.6,21.1-96.3,40.7-134.2c14.2-27.8,34.8-35.3,57.4-56.4c27.8-26,46.9-51,83.7-63.6
	C228.7,29.1,261.5,19.1,292.4,19.1z"/>
<path class="st10" d="M292.4,0c45.9,0,76.2,22.9,114.9,41.7c31.7,15.5,73.4,24.2,97.4,49.5c27.3,28.6,35,69.6,48.9,107.2
	c11.6,31.4,31.4,58.7,31.4,94c0,43.3-24.7,77.8-41.7,114.9c-18.5,40.7-30.9,83.2-65.2,111.3c-24.5,20.1-61.3,23.7-91.4,35
	c-31.9,12.1-58,31.4-94,31.4c-46.1,0-76.2-22.7-114.9-41.7c-35.8-17.5-80.9-29.9-106.6-59.8c-26.3-30.7-27.6-67.7-39.7-107.4
	C23.2,349.3,0,322,0,292.4c0-48.7,31.2-95.6,52.3-135.8C67.7,127,68.8,101.2,93,78.6c29.9-27.8,66.2-33.7,105.6-47.4
	C228.2,21.1,259.4,0,292.4,0z"/>
</svg>
