<?xml version="1.0" encoding="utf-8"?>
<!-- Generator: Adobe Illustrator 19.2.1, SVG Export Plug-In . SVG Version: 6.00 Build 0)  -->
<!DOCTYPE svg PUBLIC "-//W3C//DTD SVG 1.1//EN" "http://www.w3.org/Graphics/SVG/1.1/DTD/svg11.dtd">
<svg version="1.1" id="Capa_1" xmlns="http://www.w3.org/2000/svg" xmlns:xlink="http://www.w3.org/1999/xlink" x="0px" y="0px"
	 viewBox="0 0 37.6 33.6" style="enable-background:new 0 0 37.6 33.6;" xml:space="preserve">
<style type="text/css">
	.st0{fill:#010002;}
</style>
<g>
	<path class="st0" d="M37.3,25.5c-1.3-2.4-7.2-4-12.4-4.2c-0.5-0.5-0.9-1-1.4-1.6C19,14.6,17.2,7.2,16.6,3.3c-0.1-0.8-0.2-1.5-0.2-2
		C16.3,0.9,16.1,0,15.3,0c-0.3,0-0.6,0.1-0.8,0.3c-0.3,0.4-0.3,0.7-0.2,1.2c0.1,0.5,0.2,1.2,0.3,2c0.4,4,0.6,11.5-2.5,17.6
		c-0.3,0.6-0.6,1.2-1,1.8c-5.7,1.7-10.4,4.6-11,7.1c-0.2,0.9,0,1.7,0.6,2.4c0.7,0.8,1.6,1.2,2.6,1.2c2.7,0,5.8-3,9.2-9
		c1.5-0.4,3-0.7,4.4-0.8c0.6-0.1,1.5-0.2,2-0.3c1.5-0.2,3.3-0.3,5.1-0.3c4.2,4.3,7.5,6.5,10.1,6.5c1.4,0,2.5-0.7,3.2-1.9
		C37.7,27.1,37.7,26.3,37.3,25.5z M3.3,31.6c-0.4,0-0.8-0.2-1.1-0.5C2,30.9,2,30.7,2,30.5c0.3-1.3,3.3-3.4,7.6-5
		C7.2,29.3,4.9,31.6,3.3,31.6z M18.6,21.5c-0.5,0.1-1.4,0.2-1.9,0.2c-1,0.1-2,0.2-3,0.5c0-0.1,0.1-0.2,0.1-0.2
		c1.5-2.9,2.4-6.5,2.8-10.5c1.4,3.9,3.2,7.1,5.4,9.6c0.1,0.1,0.1,0.1,0.2,0.2C20.9,21.3,19.7,21.4,18.6,21.5z M35.6,26.9
		c-0.3,0.6-0.8,0.9-1.5,0.9h0c-1.6,0-4-1.5-7-4.3c4.5,0.6,7.8,1.9,8.4,3C35.6,26.7,35.6,26.7,35.6,26.9z"/>
</g>
</svg>
