<svg xmlns="http://www.w3.org/2000/svg" width="60" height="60" viewBox="0 0 60 60">
  <path fill="none" stroke="#cdcdcd" stroke-miterlimit="50" stroke-width="2.54"
        d="M401.51 3906.43c15.2-2.58 22.44 16.89 23.8 22.16 1.36 5.27 1.8 19.02-19.7 23.45-13.56 2.8-18.67-4.09-22.68-11.31-4-7.23-3.68-18.8 3.42-26.86 5.74-6.5 7.18-6.09 15.16-7.44z"
        transform="translate(-374 -3899)"/>
  <path fill="none" stroke="#cdcdcd" stroke-miterlimit="50" stroke-width="1.52"
        d="M402.09 3902.2c18.07-3.34 26.2 19.04 27.7 25.12 1.48 6.08 1.7 21.99-23.9 27.62-16.11 3.55-22.02-4.31-26.6-12.59-4.59-8.27-3.93-21.68 4.67-31.18 6.94-7.67 8.64-7.22 18.13-8.97z"
        transform="translate(-374 -3899)"/>
  <path fill="none" stroke="#cdcdcd" stroke-miterlimit="50" stroke-width="1.02"
        d="M401.69 3899.34c19.74-3.47 28.95 21.56 30.67 28.34 1.71 6.79 2.17 24.51-25.8 30.43-17.6 3.73-24.17-5.09-29.3-14.37-5.14-9.28-4.6-24.2 4.7-34.65 7.5-8.45 9.36-7.93 19.73-9.75z"
        transform="translate(-374 -3899)"/>
</svg>
