<svg xmlns="http://www.w3.org/2000/svg" width="432" height="441" viewBox="0 0 432 441">
  <defs>
    <clipPath id="a">
      <path fill="#fff"
            d="M312.38 5907.46c33.8 0 56.22 17.29 84.69 31.43 23.41 11.64 54 18.13 71.73 37.2 20.03 21.56 25.84 52.24 36.05 80.68 8.48 23.61 23.1 44.11 23.1 70.72 0 32.63-18.32 58.6-30.8 86.45-13.74 30.65-22.82 62.52-48.04 83.67-18.1 15.17-45.13 17.79-67.44 26.34-23.57 9.04-42.63 23.58-69.29 23.58-34 0-56.09-17.13-84.68-31.44-26.32-13.16-59.69-22.55-78.63-44.97-19.4-22.96-20.34-51-29.16-80.76-5.98-20.19-23.1-40.68-23.1-62.87 0-36.58 23.02-71.8 38.5-102.16 11.38-22.31 12.13-41.67 29.98-58.69 21.94-20.91 48.79-25.46 77.8-35.61 21.93-7.66 44.82-23.57 69.3-23.57z"/>
    </clipPath>
  </defs>
  <path fill="none" stroke="#cdcdcd" stroke-miterlimit="50" stroke-width="2"
        d="M312.38 5907.46c33.8 0 56.22 17.29 84.69 31.43 23.41 11.64 54 18.13 71.73 37.2 20.03 21.56 25.84 52.24 36.05 80.68 8.48 23.61 23.1 44.11 23.1 70.72 0 32.63-18.32 58.6-30.8 86.45-13.74 30.65-22.82 62.52-48.04 83.67-18.1 15.17-45.13 17.79-67.44 26.34-23.57 9.04-42.63 23.58-69.29 23.58-34 0-56.09-17.13-84.68-31.44-26.32-13.16-59.69-22.55-78.63-44.97-19.4-22.96-20.34-51-29.16-80.76-5.98-20.19-23.1-40.68-23.1-62.87 0-36.58 23.02-71.8 38.5-102.16 11.38-22.31 12.13-41.67 29.98-58.69 21.94-20.91 48.79-25.46 77.8-35.61 21.93-7.66 44.82-23.57 69.3-23.57z"
        clip-path="url(&quot;#a&quot;)" transform="translate(-96 -5907)"/>
</svg>
