<svg xmlns="http://www.w3.org/2000/svg" width="461" height="470" viewBox="0 0 461 470">
  <path fill="none" stroke="#cdcdcd" stroke-miterlimit="50" stroke-width=".18"
        d="M307.98 5885.99c36.06 0 59.99 18.42 90.36 33.5 24.99 12.4 57.63 19.31 76.55 39.65 21.37 22.97 27.57 55.67 38.46 85.98 9.05 25.16 24.65 47.01 24.65 75.37 0 34.77-19.54 62.45-32.86 92.13-14.66 32.67-24.35 66.64-51.26 89.18-19.31 16.17-48.15 18.96-71.97 28.07-25.15 9.63-45.48 25.13-73.93 25.13-36.28 0-59.85-18.25-90.37-33.5-28.07-14.03-63.68-24.04-83.9-47.94-20.7-24.47-21.7-54.35-31.1-86.06-6.4-21.53-24.65-43.36-24.65-67.01 0-38.99 24.56-76.52 41.07-108.87 12.15-23.79 12.95-44.42 32-62.56 23.4-22.28 52.05-27.13 83.01-37.95 23.4-8.17 47.83-25.12 73.94-25.12z"
        transform="translate(-77 -5885)"/>
</svg>
