<svg xmlns="http://www.w3.org/2000/svg" width="443" height="452" viewBox="0 0 443 452">
  <path fill="none" stroke="#cdcdcd" stroke-miterlimit="50" stroke-width=".18"
        d="M310.1 5903.86c34.66 0 57.66 17.72 86.86 32.23 24.02 11.93 55.4 18.58 73.58 38.13 20.54 22.1 26.5 53.55 36.97 82.71 8.7 24.2 23.69 45.22 23.69 72.5 0 33.45-18.79 60.07-31.59 88.62-14.1 31.42-23.4 64.1-49.27 85.78-18.56 15.55-46.28 18.23-69.17 27-24.17 9.26-43.72 24.17-71.06 24.17-34.87 0-57.53-17.56-86.86-32.23-26.99-13.49-61.21-23.12-80.64-46.1-19.9-23.54-20.86-52.28-29.9-82.79-6.14-20.7-23.7-41.7-23.7-64.45 0-37.51 23.61-73.61 39.49-104.73 11.67-22.87 12.44-42.72 30.74-60.16 22.5-21.44 50.04-26.1 79.8-36.51 22.49-7.86 45.97-24.17 71.07-24.17z"
        transform="translate(-89 -5903)"/>
</svg>
