<?xml version="1.0" encoding="utf-8"?>
<!-- Generator: Adobe Illustrator 19.2.1, SVG Export Plug-In . SVG Version: 6.00 Build 0)  -->
<!DOCTYPE svg PUBLIC "-//W3C//DTD SVG 1.1//EN" "http://www.w3.org/Graphics/SVG/1.1/DTD/svg11.dtd">
<svg version="1.1" id="Layer_1" xmlns="http://www.w3.org/2000/svg" xmlns:xlink="http://www.w3.org/1999/xlink" x="0px" y="0px"
	 viewBox="0 0 19 13" style="enable-background:new 0 0 19 13;" xml:space="preserve">
<g>
	<rect x="0.6" y="4" width="17.8" height="1"/>
	<rect x="6.8" y="4.1" transform="matrix(0.8871 -0.4616 0.4616 0.8871 -2.9994 4.281)" width="1" height="8.4"/>
	<rect x="4.1" y="0.4" transform="matrix(0.9483 -0.3173 0.3173 0.9483 -0.5626 1.5809)" width="1" height="4.3"/>
	<rect x="4.6" y="2" transform="matrix(0.7205 -0.6935 0.6935 0.7205 0.3181 5.8253)" width="5.6" height="1"/>
	<rect x="7.6" y="7.8" transform="matrix(0.4616 -0.8871 0.8871 0.4616 -0.9938 14.9041)" width="8.4" height="1"/>
	<rect x="12.3" y="2" transform="matrix(0.3173 -0.9483 0.9483 0.3173 7.4838 15.4313)" width="4.3" height="1"/>
	<rect x="11.1" y="-0.3" transform="matrix(0.6935 -0.7205 0.7205 0.6935 1.7557 9.1631)" width="1" height="5.6"/>
	<g>
		<path d="M9.5,13L0,4.6L3.6,0l11.8,0l0.2,0.2L19,4.6L9.5,13z M1.3,4.5l8.3,7.3l8.2-7.3l-2.8-3.5l-10.9,0L1.3,4.5z"/>
	</g>
</g>
</svg>
