<?xml version="1.0" encoding="utf-8"?>
<!-- Generator: Adobe Illustrator 19.2.1, SVG Export Plug-In . SVG Version: 6.00 Build 0)  -->
<!DOCTYPE svg PUBLIC "-//W3C//DTD SVG 1.1//EN" "http://www.w3.org/Graphics/SVG/1.1/DTD/svg11.dtd">
<svg version="1.1" id="Layer_1" xmlns="http://www.w3.org/2000/svg" xmlns:xlink="http://www.w3.org/1999/xlink" x="0px" y="0px"
	 viewBox="0 0 63.3 63.3" style="enable-background:new 0 0 63.3 63.3;" xml:space="preserve">
<style type="text/css">
	.st0{fill:#434243;}
	.st1{fill:none;stroke:#434243;stroke-miterlimit:10;}
</style>
<g>
	<path class="st0 XMLID_49_" d="M31.6,32.9c-0.7,0-1.4-0.6-1.4-1.4c0-0.7,0.6-1.4,1.4-1.4c0.7,0,1.4,0.6,1.4,1.4
		C33,32.3,32.3,32.9,31.6,32.9"/>
	<path class="st1 XMLID_48_" d="M35.8,45.5c-2.3-1.9-3.5-4.5-3.5-6.4"/>
	<path class="st1 XMLID_47_" d="M32.3,39.1c0-1.1,0.4-1.8,1.1-2.6c0.2-0.2,0.1-0.4,0-0.6"/>
	<path class="st1 XMLID_46_" d="M22.6,58c1.7,3.3,4.8,4.8,7.6,4.8c0.9,0,1.8-0.2,2.7-0.5c5.6-2.1,5.6-7,5.6-10.8
		c0-3.5,0.1-5.7,2.4-6.8c0.5-0.2,1.1-0.2,1.6,0c0.4,0.2,0.7,0.5,0.9,0.8c0.3,0.7,0.1,1.8-1.1,2.4c-0.6,0.3-1.4,0.4-2.2,0.2"/>
	<path class="st1 XMLID_10_" d="M24.6,44.6c-0.2-3.2,0.8-5.9,2.1-7.2"/>
	<path class="st1 XMLID_9_" d="M26.8,37.4c0.8-0.8,1.6-1,2.6-1c0.2,0,0.4-0.2,0.4-0.4"/>
	<path class="st1 XMLID_2_" d="M7.1,43.6c-0.2-0.1-0.5,0-0.6,0.3c-1.1,3.6,0,6.8,2,8.8c0.7,0.7,1.4,1.2,2.2,1.6
		c5.4,2.5,8.9-0.9,11.6-3.6c2.5-2.5,4.1-4,6.5-3.1c0.5,0.2,1,0.6,1.2,1.1c0.2,0.4,0.2,0.8,0.1,1.2c-0.3,0.8-1.2,1.4-2.4,0.9
		c-0.6-0.2-1.2-0.7-1.7-1.4"/>
	<path class="st1 XMLID_42_" d="M17.6,35.8c1.9-2.3,4.6-3.5,6.4-3.5"/>
	<path class="st1 XMLID_41_" d="M24,32.3c1.1,0,1.8,0.4,2.6,1.1c0.2,0.2,0.4,0.1,0.6,0"/>
	<path class="st1 XMLID_1_" d="M5.3,22.6c-3.3,1.7-4.8,4.8-4.8,7.6c0,0.9,0.2,1.8,0.5,2.7c2,5.6,6.8,5.6,10.7,5.7
		c3.5,0,5.7,0.1,6.8,2.4c0.2,0.5,0.2,1.1,0,1.6c-0.2,0.4-0.5,0.7-0.8,0.9c-0.7,0.3-1.8,0.1-2.4-1.1c-0.3-0.6-0.4-1.4-0.2-2.2"/>
	<path class="st1 XMLID_39_" d="M18.6,24.6c3.1-0.2,5.9,0.8,7.2,2.1"/>
	<path class="st1 XMLID_38_" d="M25.8,26.7c0.8,0.8,1,1.6,1,2.6c0,0.2,0.2,0.4,0.4,0.4"/>
	<path class="st1 XMLID_20_" d="M19.6,7c0.1-0.2,0-0.5-0.3-0.6c-3.6-1.1-6.8,0-8.8,2c-0.7,0.7-1.2,1.4-1.6,2.2
		c-2.5,5.4,0.9,8.9,3.6,11.6c2.5,2.5,4,4.1,3.1,6.5c-0.2,0.5-0.6,1-1.1,1.2c-0.4,0.2-0.8,0.2-1.2,0.1c-0.8-0.3-1.4-1.2-0.9-2.4
		c0.2-0.6,0.7-1.2,1.4-1.7"/>
	<path class="st1 XMLID_19_" d="M27.4,17.6c2.3,1.9,3.5,4.6,3.5,6.4"/>
	<path class="st1 XMLID_35_" d="M30.9,24c0,1.1-0.4,1.8-1.1,2.6c-0.2,0.2-0.1,0.4,0,0.6"/>
	<path class="st1 XMLID_17_" d="M40.5,5.9c0.2-0.1,0.3-0.4,0.2-0.6C38.8,2,35.8,0.5,33,0.5c-0.9,0-1.8,0.2-2.7,0.5
		c-5.6,2.1-5.6,6.9-5.7,10.7c0,3.5-0.1,5.7-2.4,6.8c-0.5,0.2-1.1,0.2-1.6,0c-0.4-0.2-0.7-0.5-0.9-0.8c-0.3-0.7-0.1-1.8,1.1-2.4
		c0.6-0.3,1.4-0.4,2.2-0.2"/>
	<path class="st1 XMLID_16_" d="M38.5,18.6c0.3,3.1-0.7,5.9-2.1,7.2"/>
	<path class="st1 XMLID_32_" d="M36.5,25.8c-0.8,0.8-1.6,1-2.6,1c-0.2,0-0.4,0.2-0.4,0.4"/>
	<path class="st1 XMLID_14_" d="M56.2,19.6c0.2,0.1,0.5,0,0.6-0.3c1.1-3.6,0-6.8-2-8.8c-0.7-0.7-1.4-1.2-2.2-1.6
		c-5.7-2.4-9.1,1-11.9,3.7c-2.5,2.5-4.1,4-6.5,3.1c-0.5-0.2-1-0.6-1.2-1.1c-0.2-0.4-0.2-0.8-0.1-1.2c0.3-0.8,1.2-1.4,2.4-0.9
		c0.6,0.2,1.2,0.7,1.7,1.4"/>
	<path class="st1 XMLID_30_" d="M45.6,27.4c-1.9,2.3-4.5,3.5-6.4,3.5"/>
	<path class="st1 XMLID_29_" d="M39.1,30.9c-1.1,0-1.8-0.4-2.6-1.1c-0.2-0.2-0.4-0.1-0.6,0"/>
	<path class="st1 XMLID_11_" d="M57.3,40.5c0.1,0.2,0.4,0.3,0.6,0.2c3.3-1.7,4.8-4.8,4.8-7.6c0-0.9-0.2-1.8-0.5-2.7
		c-2.1-5.6-6.9-5.6-10.7-5.7c-3.5,0-5.7-0.1-6.8-2.4c-0.2-0.5-0.2-1.1,0-1.6c0.2-0.4,0.5-0.7,0.8-0.9c0.7-0.3,1.8-0.1,2.4,1.1
		c0.3,0.6,0.4,1.4,0.2,2.2"/>
	<path class="st1 XMLID_6_" d="M44.6,38.5c-3.2,0.3-5.9-0.7-7.2-2.1"/>
	<path class="st1 XMLID_5_" d="M37.5,36.4c-0.8-0.8-1-1.6-1-2.6c0-0.2-0.2-0.4-0.4-0.4"/>
	<path class="st1 XMLID_4_" d="M43.5,56.2c-0.1,0.2,0,0.5,0.3,0.6c3.6,1.1,6.8,0,8.8-2c0.7-0.7,1.2-1.4,1.6-2.2
		c2.5-5.4-0.9-8.9-3.6-11.6c-2.5-2.5-4-4.1-3.1-6.5c0.2-0.5,0.6-1,1.1-1.2c0.4-0.2,0.8-0.2,1.2-0.1c0.8,0.3,1.4,1.2,0.9,2.4
		c-0.2,0.6-0.7,1.2-1.4,1.7"/>
</g>
</svg>
