<?xml version="1.0" encoding="utf-8"?>
<!-- Generator: Adobe Illustrator 19.2.1, SVG Export Plug-In . SVG Version: 6.00 Build 0)  -->
<!DOCTYPE svg PUBLIC "-//W3C//DTD SVG 1.1//EN" "http://www.w3.org/Graphics/SVG/1.1/DTD/svg11.dtd">
<svg version="1.1" id="Layer_1" xmlns="http://www.w3.org/2000/svg" xmlns:xlink="http://www.w3.org/1999/xlink" x="0px" y="0px"
	 viewBox="0 0 24 24" style="enable-background:new 0 0 24 24;" xml:space="preserve">
<title></title>
<g id="whatsapp">
	<path d="M12,0C5.4,0,0,5.4,0,12c0,2.3,0.7,4.5,1.9,6.5L0,23.3c-0.1,0.3,0,0.5,0.3,0.6c0.1,0,0.1,0,0.2,0c0.1,0,0.1,0,0.2,0l5-1.8
		c5.6,3.5,13,1.7,16.5-3.9s1.7-13-3.9-16.5C16.4,0.6,14.2,0,12,0z M18,15.5C17.8,17,16.5,18,15,18c-1.6,0-4.6-1.9-5.9-3.1
		S6,10.6,6,9c0-1.5,1-2.8,2.5-3h1c0.2,0,0.4,0.1,0.4,0.3c0,0,0.6,1.2,1,2s-0.4,1.9-0.9,2.4c0.3,0.7,0.7,1.4,1.3,2
		c0.6,0.6,1.3,1,2,1.3c0.5-0.5,1.1-0.9,1.8-1c0.2,0,0.4,0,0.5,0.1c0.8,0.4,2,1,2,1c0.2,0.1,0.3,0.3,0.3,0.4L18,15.5z"/>
</g>
</svg>
