<?xml version="1.0" encoding="utf-8"?>
<!-- Generator: Adobe Illustrator 19.2.1, SVG Export Plug-In . SVG Version: 6.00 Build 0)  -->
<!DOCTYPE svg PUBLIC "-//W3C//DTD SVG 1.1//EN" "http://www.w3.org/Graphics/SVG/1.1/DTD/svg11.dtd">
<svg version="1.1" id="Layer_1" xmlns="http://www.w3.org/2000/svg" xmlns:xlink="http://www.w3.org/1999/xlink" x="0px" y="0px"
	 viewBox="0 0 14.3 10" style="enable-background:new 0 0 14.3 10;" xml:space="preserve">
<g id="XMLID_822_">
	<path id="XMLID_823_" d="M13.7,0.9C13.2,0.2,12.2,0,10.4,0H3.8C2,0,1,0.3,0.5,0.9C0,1.6,0,2.5,0,3.8v2.5C0,8.8,0.6,10,3.8,10h6.6
		c1.6,0,2.4-0.2,3-0.8c0.6-0.6,0.8-1.5,0.8-3V3.8C14.3,2.4,14.2,1.5,13.7,0.9z M9.2,5.4l-3,1.6C6.1,7,6,7,5.9,7
		c-0.1,0-0.2,0-0.2-0.1C5.6,6.8,5.5,6.7,5.5,6.5V3.4c0-0.2,0.1-0.3,0.2-0.4C5.8,2.9,6,2.9,6.2,3l3,1.6c0.2,0.1,0.2,0.2,0.2,0.4
		C9.4,5.1,9.3,5.3,9.2,5.4z"/>
</g>
</svg>
